<mxfile host="Electron" modified="2023-11-23T16:02:50.094Z" agent="Mozilla/5.0 (Windows NT 10.0; Win64; x64) AppleWebKit/537.36 (KHTML, like Gecko) draw.io/22.1.2 Chrome/114.0.5735.289 Electron/25.9.4 Safari/537.36" etag="iKYWc7hgHkOz9ucmLW01" version="22.1.2" type="device" pages="2">
  <diagram name="User" id="8w5UPdtktY_eVul0txrl">
    <mxGraphModel dx="1500" dy="887" grid="1" gridSize="10" guides="1" tooltips="1" connect="1" arrows="1" fold="1" page="1" pageScale="1" pageWidth="1600" pageHeight="900" math="0" shadow="0">
      <root>
        <mxCell id="0" />
        <mxCell id="1" parent="0" />
        <mxCell id="et22IKyacFpXcgxz6zMN-1" value="" style="whiteSpace=wrap;html=1;aspect=fixed;sketch=1;hachureGap=4;jiggle=2;curveFitting=1;fontFamily=Architects Daughter;fontSource=https%3A%2F%2Ffonts.googleapis.com%2Fcss%3Ffamily%3DArchitects%2BDaughter;fontSize=20;" vertex="1" parent="1">
          <mxGeometry x="95" width="440" height="440" as="geometry" />
        </mxCell>
        <mxCell id="et22IKyacFpXcgxz6zMN-2" value="" style="rounded=1;whiteSpace=wrap;html=1;sketch=1;hachureGap=4;jiggle=2;curveFitting=1;fontFamily=Architects Daughter;fontSource=https%3A%2F%2Ffonts.googleapis.com%2Fcss%3Ffamily%3DArchitects%2BDaughter;fontSize=20;" vertex="1" parent="1">
          <mxGeometry x="95" width="430" height="60" as="geometry" />
        </mxCell>
        <mxCell id="et22IKyacFpXcgxz6zMN-3" value="" style="rounded=1;whiteSpace=wrap;html=1;sketch=1;hachureGap=4;jiggle=2;curveFitting=1;fontFamily=Architects Daughter;fontSource=https%3A%2F%2Ffonts.googleapis.com%2Fcss%3Ffamily%3DArchitects%2BDaughter;fontSize=20;rotation=90;" vertex="1" parent="1">
          <mxGeometry x="285" y="190" width="440" height="60" as="geometry" />
        </mxCell>
        <mxCell id="et22IKyacFpXcgxz6zMN-4" value="" style="rounded=0;whiteSpace=wrap;html=1;sketch=1;hachureGap=4;jiggle=2;curveFitting=1;fontFamily=Architects Daughter;fontSource=https%3A%2F%2Ffonts.googleapis.com%2Fcss%3Ffamily%3DArchitects%2BDaughter;fontSize=20;" vertex="1" parent="1">
          <mxGeometry x="115" y="80" width="340" height="120" as="geometry" />
        </mxCell>
        <mxCell id="et22IKyacFpXcgxz6zMN-5" value="" style="ellipse;whiteSpace=wrap;html=1;aspect=fixed;sketch=1;hachureGap=4;jiggle=2;curveFitting=1;fontFamily=Architects Daughter;fontSource=https%3A%2F%2Ffonts.googleapis.com%2Fcss%3Ffamily%3DArchitects%2BDaughter;fontSize=20;" vertex="1" parent="1">
          <mxGeometry x="355" y="100" width="80" height="80" as="geometry" />
        </mxCell>
        <mxCell id="et22IKyacFpXcgxz6zMN-6" value="Progress" style="ellipse;whiteSpace=wrap;html=1;aspect=fixed;sketch=1;hachureGap=4;jiggle=2;curveFitting=1;fontFamily=Architects Daughter;fontSource=https%3A%2F%2Ffonts.googleapis.com%2Fcss%3Ffamily%3DArchitects%2BDaughter;fontSize=20;" vertex="1" parent="1">
          <mxGeometry x="375" y="115" width="45" height="45" as="geometry" />
        </mxCell>
        <mxCell id="et22IKyacFpXcgxz6zMN-7" value="Deadlines" style="shape=trapezoid;perimeter=trapezoidPerimeter;whiteSpace=wrap;html=1;fixedSize=1;sketch=1;hachureGap=4;jiggle=2;curveFitting=1;fontFamily=Architects Daughter;fontSource=https%3A%2F%2Ffonts.googleapis.com%2Fcss%3Ffamily%3DArchitects%2BDaughter;fontSize=20;" vertex="1" parent="1">
          <mxGeometry x="125" y="105" width="210" height="75" as="geometry" />
        </mxCell>
        <mxCell id="et22IKyacFpXcgxz6zMN-8" value="Review Report" style="shape=note;whiteSpace=wrap;html=1;backgroundOutline=1;darkOpacity=0.05;sketch=1;hachureGap=4;jiggle=2;curveFitting=1;fontFamily=Architects Daughter;fontSource=https%3A%2F%2Ffonts.googleapis.com%2Fcss%3Ffamily%3DArchitects%2BDaughter;fontSize=20;" vertex="1" parent="1">
          <mxGeometry x="385" y="330" width="80" height="100" as="geometry" />
        </mxCell>
        <mxCell id="et22IKyacFpXcgxz6zMN-9" value="AI Suggest&amp;nbsp;" style="shape=note;whiteSpace=wrap;html=1;backgroundOutline=1;darkOpacity=0.05;sketch=1;hachureGap=4;jiggle=2;curveFitting=1;fontFamily=Architects Daughter;fontSource=https%3A%2F%2Ffonts.googleapis.com%2Fcss%3Ffamily%3DArchitects%2BDaughter;fontSize=20;" vertex="1" parent="1">
          <mxGeometry x="295" y="330" width="80" height="100" as="geometry" />
        </mxCell>
        <mxCell id="et22IKyacFpXcgxz6zMN-10" value="List" style="swimlane;fontStyle=0;childLayout=stackLayout;horizontal=1;startSize=30;horizontalStack=0;resizeParent=1;resizeParentMax=0;resizeLast=0;collapsible=1;marginBottom=0;whiteSpace=wrap;html=1;sketch=1;hachureGap=4;jiggle=2;curveFitting=1;fontFamily=Architects Daughter;fontSource=https%3A%2F%2Ffonts.googleapis.com%2Fcss%3Ffamily%3DArchitects%2BDaughter;fontSize=20;" vertex="1" parent="1">
          <mxGeometry x="115" y="220" width="140" height="210" as="geometry" />
        </mxCell>
        <mxCell id="et22IKyacFpXcgxz6zMN-11" value="Item 1" style="text;strokeColor=none;fillColor=none;align=left;verticalAlign=middle;spacingLeft=4;spacingRight=4;overflow=hidden;points=[[0,0.5],[1,0.5]];portConstraint=eastwest;rotatable=0;whiteSpace=wrap;html=1;fontSize=20;fontFamily=Architects Daughter;" vertex="1" parent="et22IKyacFpXcgxz6zMN-10">
          <mxGeometry y="30" width="140" height="60" as="geometry" />
        </mxCell>
        <mxCell id="et22IKyacFpXcgxz6zMN-12" value="Item 2" style="text;strokeColor=none;fillColor=none;align=left;verticalAlign=middle;spacingLeft=4;spacingRight=4;overflow=hidden;points=[[0,0.5],[1,0.5]];portConstraint=eastwest;rotatable=0;whiteSpace=wrap;html=1;fontSize=20;fontFamily=Architects Daughter;" vertex="1" parent="et22IKyacFpXcgxz6zMN-10">
          <mxGeometry y="90" width="140" height="70" as="geometry" />
        </mxCell>
        <mxCell id="et22IKyacFpXcgxz6zMN-13" value="Item 3" style="text;strokeColor=none;fillColor=none;align=left;verticalAlign=middle;spacingLeft=4;spacingRight=4;overflow=hidden;points=[[0,0.5],[1,0.5]];portConstraint=eastwest;rotatable=0;whiteSpace=wrap;html=1;fontSize=20;fontFamily=Architects Daughter;" vertex="1" parent="et22IKyacFpXcgxz6zMN-10">
          <mxGeometry y="160" width="140" height="50" as="geometry" />
        </mxCell>
        <mxCell id="et22IKyacFpXcgxz6zMN-15" value="Exha. Report" style="swimlane;whiteSpace=wrap;html=1;sketch=1;hachureGap=4;jiggle=2;curveFitting=1;fontFamily=Architects Daughter;fontSource=https%3A%2F%2Ffonts.googleapis.com%2Fcss%3Ffamily%3DArchitects%2BDaughter;fontSize=20;" vertex="1" parent="1">
          <mxGeometry x="285" y="220" width="180" height="90" as="geometry" />
        </mxCell>
        <mxCell id="et22IKyacFpXcgxz6zMN-17" value="" style="whiteSpace=wrap;html=1;aspect=fixed;sketch=1;hachureGap=4;jiggle=2;curveFitting=1;fontFamily=Architects Daughter;fontSource=https%3A%2F%2Ffonts.googleapis.com%2Fcss%3Ffamily%3DArchitects%2BDaughter;fontSize=20;" vertex="1" parent="1">
          <mxGeometry x="605" width="440" height="440" as="geometry" />
        </mxCell>
        <mxCell id="et22IKyacFpXcgxz6zMN-18" value="" style="rounded=1;whiteSpace=wrap;html=1;sketch=1;hachureGap=4;jiggle=2;curveFitting=1;fontFamily=Architects Daughter;fontSource=https%3A%2F%2Ffonts.googleapis.com%2Fcss%3Ffamily%3DArchitects%2BDaughter;fontSize=20;" vertex="1" parent="1">
          <mxGeometry x="605" width="440" height="60" as="geometry" />
        </mxCell>
        <mxCell id="et22IKyacFpXcgxz6zMN-31" value="Orig Code" style="swimlane;whiteSpace=wrap;html=1;sketch=1;hachureGap=4;jiggle=2;curveFitting=1;fontFamily=Architects Daughter;fontSource=https%3A%2F%2Ffonts.googleapis.com%2Fcss%3Ffamily%3DArchitects%2BDaughter;fontSize=20;" vertex="1" parent="1">
          <mxGeometry x="625" y="80" width="180" height="350" as="geometry" />
        </mxCell>
        <mxCell id="et22IKyacFpXcgxz6zMN-32" value="Suggest Code" style="swimlane;whiteSpace=wrap;html=1;sketch=1;hachureGap=4;jiggle=2;curveFitting=1;fontFamily=Architects Daughter;fontSource=https%3A%2F%2Ffonts.googleapis.com%2Fcss%3Ffamily%3DArchitects%2BDaughter;fontSize=20;" vertex="1" parent="1">
          <mxGeometry x="845" y="80" width="180" height="350" as="geometry" />
        </mxCell>
        <mxCell id="et22IKyacFpXcgxz6zMN-34" value="" style="shape=flexArrow;endArrow=classic;startArrow=classic;html=1;rounded=0;sketch=1;hachureGap=4;jiggle=2;curveFitting=1;fontFamily=Architects Daughter;fontSource=https%3A%2F%2Ffonts.googleapis.com%2Fcss%3Ffamily%3DArchitects%2BDaughter;fontSize=16;entryX=0;entryY=0.333;entryDx=0;entryDy=0;entryPerimeter=0;exitX=1;exitY=0.5;exitDx=0;exitDy=0;" edge="1" parent="1" target="et22IKyacFpXcgxz6zMN-36">
          <mxGeometry width="100" height="100" relative="1" as="geometry">
            <mxPoint x="745" y="142.5" as="sourcePoint" />
            <mxPoint x="855" y="105" as="targetPoint" />
          </mxGeometry>
        </mxCell>
        <mxCell id="et22IKyacFpXcgxz6zMN-35" value="Text" style="text;html=1;strokeColor=none;fillColor=none;align=center;verticalAlign=middle;whiteSpace=wrap;rounded=0;fontSize=20;fontFamily=Architects Daughter;" vertex="1" parent="1">
          <mxGeometry x="685" y="127.5" width="60" height="30" as="geometry" />
        </mxCell>
        <mxCell id="et22IKyacFpXcgxz6zMN-36" value="Text" style="text;html=1;strokeColor=none;fillColor=none;align=center;verticalAlign=middle;whiteSpace=wrap;rounded=0;fontSize=20;fontFamily=Architects Daughter;" vertex="1" parent="1">
          <mxGeometry x="905" y="130" width="60" height="30" as="geometry" />
        </mxCell>
        <mxCell id="et22IKyacFpXcgxz6zMN-37" value="" style="whiteSpace=wrap;html=1;aspect=fixed;sketch=1;hachureGap=4;jiggle=2;curveFitting=1;fontFamily=Architects Daughter;fontSource=https%3A%2F%2Ffonts.googleapis.com%2Fcss%3Ffamily%3DArchitects%2BDaughter;fontSize=20;" vertex="1" parent="1">
          <mxGeometry x="1065" width="440" height="440" as="geometry" />
        </mxCell>
        <mxCell id="et22IKyacFpXcgxz6zMN-38" value="" style="rounded=1;whiteSpace=wrap;html=1;sketch=1;hachureGap=4;jiggle=2;curveFitting=1;fontFamily=Architects Daughter;fontSource=https%3A%2F%2Ffonts.googleapis.com%2Fcss%3Ffamily%3DArchitects%2BDaughter;fontSize=20;" vertex="1" parent="1">
          <mxGeometry x="1065" width="440" height="60" as="geometry" />
        </mxCell>
        <mxCell id="et22IKyacFpXcgxz6zMN-44" value="List" style="swimlane;fontStyle=0;childLayout=stackLayout;horizontal=1;startSize=30;horizontalStack=0;resizeParent=1;resizeParentMax=0;resizeLast=0;collapsible=1;marginBottom=0;whiteSpace=wrap;html=1;sketch=1;hachureGap=4;jiggle=2;curveFitting=1;fontFamily=Architects Daughter;fontSource=https%3A%2F%2Ffonts.googleapis.com%2Fcss%3Ffamily%3DArchitects%2BDaughter;fontSize=20;" vertex="1" parent="1">
          <mxGeometry x="1095" y="300" width="380" height="120" as="geometry" />
        </mxCell>
        <mxCell id="et22IKyacFpXcgxz6zMN-45" value="Item 1" style="text;strokeColor=none;fillColor=none;align=left;verticalAlign=middle;spacingLeft=4;spacingRight=4;overflow=hidden;points=[[0,0.5],[1,0.5]];portConstraint=eastwest;rotatable=0;whiteSpace=wrap;html=1;fontSize=20;fontFamily=Architects Daughter;" vertex="1" parent="et22IKyacFpXcgxz6zMN-44">
          <mxGeometry y="30" width="380" height="30" as="geometry" />
        </mxCell>
        <mxCell id="et22IKyacFpXcgxz6zMN-46" value="Item 2" style="text;strokeColor=none;fillColor=none;align=left;verticalAlign=middle;spacingLeft=4;spacingRight=4;overflow=hidden;points=[[0,0.5],[1,0.5]];portConstraint=eastwest;rotatable=0;whiteSpace=wrap;html=1;fontSize=20;fontFamily=Architects Daughter;" vertex="1" parent="et22IKyacFpXcgxz6zMN-44">
          <mxGeometry y="60" width="380" height="30" as="geometry" />
        </mxCell>
        <mxCell id="et22IKyacFpXcgxz6zMN-47" value="Item 3" style="text;strokeColor=none;fillColor=none;align=left;verticalAlign=middle;spacingLeft=4;spacingRight=4;overflow=hidden;points=[[0,0.5],[1,0.5]];portConstraint=eastwest;rotatable=0;whiteSpace=wrap;html=1;fontSize=20;fontFamily=Architects Daughter;" vertex="1" parent="et22IKyacFpXcgxz6zMN-44">
          <mxGeometry y="90" width="380" height="30" as="geometry" />
        </mxCell>
        <mxCell id="et22IKyacFpXcgxz6zMN-49" value="" style="rounded=1;whiteSpace=wrap;html=1;sketch=1;hachureGap=4;jiggle=2;curveFitting=1;fontFamily=Architects Daughter;fontSource=https%3A%2F%2Ffonts.googleapis.com%2Fcss%3Ffamily%3DArchitects%2BDaughter;fontSize=20;" vertex="1" parent="1">
          <mxGeometry x="1095" y="80" width="380" height="180" as="geometry" />
        </mxCell>
        <mxCell id="et22IKyacFpXcgxz6zMN-50" value="User Profile" style="ellipse;whiteSpace=wrap;html=1;sketch=1;hachureGap=4;jiggle=2;curveFitting=1;fontFamily=Architects Daughter;fontSource=https%3A%2F%2Ffonts.googleapis.com%2Fcss%3Ffamily%3DArchitects%2BDaughter;fontSize=20;" vertex="1" parent="1">
          <mxGeometry x="1125" y="97.5" width="130" height="142.5" as="geometry" />
        </mxCell>
        <mxCell id="et22IKyacFpXcgxz6zMN-51" value="User Ratings For current project" style="ellipse;whiteSpace=wrap;html=1;aspect=fixed;sketch=1;hachureGap=4;jiggle=2;curveFitting=1;fontFamily=Architects Daughter;fontSource=https%3A%2F%2Ffonts.googleapis.com%2Fcss%3Ffamily%3DArchitects%2BDaughter;fontSize=20;" vertex="1" parent="1">
          <mxGeometry x="1285" y="83.75" width="170" height="170" as="geometry" />
        </mxCell>
        <mxCell id="et22IKyacFpXcgxz6zMN-52" value="" style="whiteSpace=wrap;html=1;aspect=fixed;sketch=1;hachureGap=4;jiggle=2;curveFitting=1;fontFamily=Architects Daughter;fontSource=https://fonts.googleapis.com/css?family=Architects+Daughter;fontSize=20;" vertex="1" parent="1">
          <mxGeometry x="605" y="460" width="440" height="440" as="geometry" />
        </mxCell>
        <mxCell id="et22IKyacFpXcgxz6zMN-53" value="" style="rounded=1;whiteSpace=wrap;html=1;sketch=1;hachureGap=4;jiggle=2;curveFitting=1;fontFamily=Architects Daughter;fontSource=https%3A%2F%2Ffonts.googleapis.com%2Fcss%3Ffamily%3DArchitects%2BDaughter;fontSize=20;" vertex="1" parent="1">
          <mxGeometry x="605" y="460" width="440" height="60" as="geometry" />
        </mxCell>
        <mxCell id="et22IKyacFpXcgxz6zMN-54" value="List" style="swimlane;fontStyle=0;childLayout=stackLayout;horizontal=1;startSize=30;horizontalStack=0;resizeParent=1;resizeParentMax=0;resizeLast=0;collapsible=1;marginBottom=0;whiteSpace=wrap;html=1;sketch=1;hachureGap=4;jiggle=2;curveFitting=1;fontFamily=Architects Daughter;fontSource=https%3A%2F%2Ffonts.googleapis.com%2Fcss%3Ffamily%3DArchitects%2BDaughter;fontSize=20;" vertex="1" parent="1">
          <mxGeometry x="620" y="550" width="400" height="120" as="geometry" />
        </mxCell>
        <mxCell id="et22IKyacFpXcgxz6zMN-55" value="Item 1" style="text;strokeColor=none;fillColor=none;align=left;verticalAlign=middle;spacingLeft=4;spacingRight=4;overflow=hidden;points=[[0,0.5],[1,0.5]];portConstraint=eastwest;rotatable=0;whiteSpace=wrap;html=1;fontSize=20;fontFamily=Architects Daughter;" vertex="1" parent="et22IKyacFpXcgxz6zMN-54">
          <mxGeometry y="30" width="400" height="30" as="geometry" />
        </mxCell>
        <mxCell id="et22IKyacFpXcgxz6zMN-56" value="Item 2" style="text;strokeColor=none;fillColor=none;align=left;verticalAlign=middle;spacingLeft=4;spacingRight=4;overflow=hidden;points=[[0,0.5],[1,0.5]];portConstraint=eastwest;rotatable=0;whiteSpace=wrap;html=1;fontSize=20;fontFamily=Architects Daughter;" vertex="1" parent="et22IKyacFpXcgxz6zMN-54">
          <mxGeometry y="60" width="400" height="30" as="geometry" />
        </mxCell>
        <mxCell id="et22IKyacFpXcgxz6zMN-57" value="Item 3" style="text;strokeColor=none;fillColor=none;align=left;verticalAlign=middle;spacingLeft=4;spacingRight=4;overflow=hidden;points=[[0,0.5],[1,0.5]];portConstraint=eastwest;rotatable=0;whiteSpace=wrap;html=1;fontSize=20;fontFamily=Architects Daughter;" vertex="1" parent="et22IKyacFpXcgxz6zMN-54">
          <mxGeometry y="90" width="400" height="30" as="geometry" />
        </mxCell>
        <mxCell id="et22IKyacFpXcgxz6zMN-58" value="Documentation Report" style="shape=note;whiteSpace=wrap;html=1;backgroundOutline=1;darkOpacity=0.05;sketch=1;hachureGap=4;jiggle=2;curveFitting=1;fontFamily=Architects Daughter;fontSource=https%3A%2F%2Ffonts.googleapis.com%2Fcss%3Ffamily%3DArchitects%2BDaughter;fontSize=20;size=32;" vertex="1" parent="1">
          <mxGeometry x="625" y="680" width="395" height="200" as="geometry" />
        </mxCell>
      </root>
    </mxGraphModel>
  </diagram>
  <diagram id="jBDJ4ZZ9kB9aPSIZrEm3" name="Client">
    <mxGraphModel dx="1909" dy="1129" grid="1" gridSize="10" guides="1" tooltips="1" connect="1" arrows="1" fold="1" page="1" pageScale="1" pageWidth="1600" pageHeight="900" math="0" shadow="0">
      <root>
        <mxCell id="0" />
        <mxCell id="1" parent="0" />
        <mxCell id="DeOQyQl4f5nWrvZGAfKE-1" value="" style="whiteSpace=wrap;html=1;aspect=fixed;sketch=1;hachureGap=4;jiggle=2;curveFitting=1;fontFamily=Architects Daughter;fontSource=https%3A%2F%2Ffonts.googleapis.com%2Fcss%3Ffamily%3DArchitects%2BDaughter;fontSize=20;" vertex="1" parent="1">
          <mxGeometry x="40" y="40" width="430" height="430" as="geometry" />
        </mxCell>
        <mxCell id="DeOQyQl4f5nWrvZGAfKE-2" value="" style="rounded=1;whiteSpace=wrap;html=1;sketch=1;hachureGap=4;jiggle=2;curveFitting=1;fontFamily=Architects Daughter;fontSource=https%3A%2F%2Ffonts.googleapis.com%2Fcss%3Ffamily%3DArchitects%2BDaughter;fontSize=20;" vertex="1" parent="1">
          <mxGeometry x="40" y="40" width="430" height="60" as="geometry" />
        </mxCell>
        <mxCell id="DeOQyQl4f5nWrvZGAfKE-3" value="" style="rounded=1;whiteSpace=wrap;html=1;sketch=1;hachureGap=4;jiggle=2;curveFitting=1;fontFamily=Architects Daughter;fontSource=https%3A%2F%2Ffonts.googleapis.com%2Fcss%3Ffamily%3DArchitects%2BDaughter;fontSize=20;rotation=90;" vertex="1" parent="1">
          <mxGeometry x="230" y="225" width="430" height="60" as="geometry" />
        </mxCell>
        <mxCell id="6jTWQtG_JXqSve_dhK4N-2" value="" style="rounded=0;whiteSpace=wrap;html=1;sketch=1;hachureGap=4;jiggle=2;curveFitting=1;fontFamily=Architects Daughter;fontSource=https%3A%2F%2Ffonts.googleapis.com%2Fcss%3Ffamily%3DArchitects%2BDaughter;fontSize=20;" vertex="1" parent="1">
          <mxGeometry x="50" y="120" width="360" height="130" as="geometry" />
        </mxCell>
        <mxCell id="6jTWQtG_JXqSve_dhK4N-3" value="Deadlines" style="shape=trapezoid;perimeter=trapezoidPerimeter;whiteSpace=wrap;html=1;fixedSize=1;sketch=1;hachureGap=4;jiggle=2;curveFitting=1;fontFamily=Architects Daughter;fontSource=https%3A%2F%2Ffonts.googleapis.com%2Fcss%3Ffamily%3DArchitects%2BDaughter;fontSize=20;" vertex="1" parent="1">
          <mxGeometry x="60" y="130" width="190" height="100" as="geometry" />
        </mxCell>
        <mxCell id="6jTWQtG_JXqSve_dhK4N-4" value="&lt;font style=&quot;font-size: 10px;&quot;&gt;Extimated vs Current&lt;/font&gt;" style="verticalLabelPosition=bottom;shadow=0;dashed=0;align=center;html=1;verticalAlign=top;strokeWidth=1;shape=mxgraph.mockup.graphics.columnChart;strokeColor=none;strokeColor2=none;strokeColor3=#666666;fillColor2=#008cff;fillColor3=#dddddd;sketch=1;hachureGap=4;jiggle=2;curveFitting=1;fontFamily=Architects Daughter;fontSource=https%3A%2F%2Ffonts.googleapis.com%2Fcss%3Ffamily%3DArchitects%2BDaughter;fontSize=20;" vertex="1" parent="1">
          <mxGeometry x="270" y="130" width="130" height="90" as="geometry" />
        </mxCell>
        <mxCell id="6jTWQtG_JXqSve_dhK4N-5" value="List" style="swimlane;fontStyle=0;childLayout=stackLayout;horizontal=1;startSize=26;fillColor=none;horizontalStack=0;resizeParent=1;resizeParentMax=0;resizeLast=0;collapsible=1;marginBottom=0;html=1;sketch=1;hachureGap=4;jiggle=2;curveFitting=1;fontFamily=Architects Daughter;fontSource=https%3A%2F%2Ffonts.googleapis.com%2Fcss%3Ffamily%3DArchitects%2BDaughter;fontSize=20;" vertex="1" parent="1">
          <mxGeometry x="60" y="270" width="200" height="190" as="geometry" />
        </mxCell>
        <mxCell id="6jTWQtG_JXqSve_dhK4N-6" value="Item 1" style="text;strokeColor=none;fillColor=none;align=left;verticalAlign=top;spacingLeft=4;spacingRight=4;overflow=hidden;rotatable=0;points=[[0,0.5],[1,0.5]];portConstraint=eastwest;whiteSpace=wrap;html=1;fontSize=20;fontFamily=Architects Daughter;" vertex="1" parent="6jTWQtG_JXqSve_dhK4N-5">
          <mxGeometry y="26" width="200" height="54" as="geometry" />
        </mxCell>
        <mxCell id="6jTWQtG_JXqSve_dhK4N-7" value="Item 2" style="text;strokeColor=none;fillColor=none;align=left;verticalAlign=top;spacingLeft=4;spacingRight=4;overflow=hidden;rotatable=0;points=[[0,0.5],[1,0.5]];portConstraint=eastwest;whiteSpace=wrap;html=1;fontSize=20;fontFamily=Architects Daughter;" vertex="1" parent="6jTWQtG_JXqSve_dhK4N-5">
          <mxGeometry y="80" width="200" height="60" as="geometry" />
        </mxCell>
        <mxCell id="6jTWQtG_JXqSve_dhK4N-8" value="Item 3" style="text;strokeColor=none;fillColor=none;align=left;verticalAlign=top;spacingLeft=4;spacingRight=4;overflow=hidden;rotatable=0;points=[[0,0.5],[1,0.5]];portConstraint=eastwest;whiteSpace=wrap;html=1;fontSize=20;fontFamily=Architects Daughter;" vertex="1" parent="6jTWQtG_JXqSve_dhK4N-5">
          <mxGeometry y="140" width="200" height="50" as="geometry" />
        </mxCell>
        <mxCell id="wMgDyIMV-jGrsU-eevNs-1" value="Report" style="swimlane;horizontal=0;whiteSpace=wrap;html=1;sketch=1;hachureGap=4;jiggle=2;curveFitting=1;fontFamily=Architects Daughter;fontSource=https%3A%2F%2Ffonts.googleapis.com%2Fcss%3Ffamily%3DArchitects%2BDaughter;fontSize=20;startSize=20;" vertex="1" parent="1">
          <mxGeometry x="280" y="265" width="130" height="200" as="geometry" />
        </mxCell>
        <mxCell id="wMgDyIMV-jGrsU-eevNs-3" value="" style="shape=image;verticalLabelPosition=bottom;labelBackgroundColor=default;verticalAlign=top;aspect=fixed;imageAspect=0;image=data:image/png,iVBORw0KGgoAAAANSUhEUgAAAUAAAAGUCAYAAABEP/uTAAAAAXNSR0IArs4c6QAAAARnQU1BAACxjwv8YQUAAAAJcEhZcwAAEnQAABJ0Ad5mH3gAANBASURBVHhe7F0LQBTV/v6lqPjGN5rVVmhYathVw8qSfMU/83Er01KMHpplGj00emhaSVpJmlevVpJoolaiZpKWYlkXU2+iWFDahcoCX7G+YhVs/uc7M2d3dpiZXRYQrPPVkdmZ2dl5nPOd7/c4Zy6oVSNIIQkJCYm/IWpofyUkJCT+dpAEKCEh8beFJEAJCYm/LSQBSkhI/G0hCVBCQuJvC0mAEhISf1tIApSQkPjbQuYB/k1Rs8YFFFSzhudvTfa3huEvKzXZsvEvXUB09qxCZ//8kxX81cpZw2ds5/vpPuOvtk5RZNWTqFpIAqwGqFOrJjWoW6tUaVhqXW33unp1gnyQF/urbQ9if43bqgNAgsUlf9KZkrPa3z/Z37PaX7V4b7PeF3+LTpfQHy5WThdrf9XPp/DZva2E7ychAUgCLAdAMIKcGjJy8hCVWOf9ufQ69Tu1g849IalK7E8q8fqrUImm4vDXvU1Te+IvhBuIFGoQ98BdNNL1FJVwvT7jr7auxgVMSlYBoDxBhKd0JKknTXW9+hnLJ4uK6aSLFfb3FJZ1n1FOF5/VjixxvkESoAmaNKxDzRvXpRaNg73+Nmd/W+j+Nq5fW/tG+QAFo29QxnJC/9m93xmNkDTSAnlpJqeexIzb9SRW1QAJ1mLkXzuopva3BvtbU/urFu9t1vvib12miusFs1KnFtXnf/GZqWW2XF8ss7/BtWtqZ1AxKGb3F8/EjBw9nxmZGrYfO3WGldPkPHmGEW2xdjSJc4m/DQEG1w4qRWhWxAaF4g9ALl4VnRWVrM6on40NwVAEsUkFcW4B4i1NjiDM0sTZgP0Vir0+X2br8Fm3viJcCuikQIRORojHDH+xXhCl+Mu3MwKV5nz5cN4ToD+Ehr+oqP4CFeuws4gOHyuiI8dcpf9q27CfhAQUJQixvkaIRoIUn723B1HjBnUohFkRjevXCViVovNEPXSeVAkRf53s7zH8ZURZyP6iYH3hCe0vKxIqqjUB1mI9a+tm9VipTxeiNEdpQG3wV/vsL2BmWhGZkeSwr4TEuQQIEETICbGBSorqsuGv13LgxGlGinzdib8XaVYpAcJn07opI7im9TnRgdQ4uWlEh22+UBVqDT4nVLzgWqo/qQ6Wtc8iVUR1+l9ANUyCADXcnz3rS6/Dd8sWVLD6zP4/r/Anq5F/sn/gYvhTYQV/8Vm3jPXe2/E9bZ1uvdc+2l/4QWFywneHv+7PrOPz+uze7s8+3tvxu+cCdsTZqJ4nawClYb1a1KpJPbqoRQPt22WDGSmi/H78NB097uLt7cjxIjrK/7q0b1VvVCoB4gFwBQeCY2QWykobt5Krzx+GL8A5vOd/Rykr9yh9m/e7dtOZ1GcPAcuobHrAH8N9OJpfhzvGtWX4eDzLbFttlcDcJKYRmnud4TO2Yz+QioSEHRjXasTICiddb6K0WhYReavtVss8mi0KazP460kL8hSjzxDtQJCjPs0KJInStqX6NxDSBAmqZKiKEUGS1Yksy0WAzRoFu4kNZqpezYHoWobU1fb8+wCVUZ+zdqbYs6z+1S2zbWZ5bWIZ66EkPEWN5np9xl/3OvPP51vCMdJjhCIWy/yzWDZbV0P9Hv+Obh+vY2h/odLRUcLFwvMkxWem7L0+G7bb7YP1+C2x/XztJKGSrYJ1onS6tCl1D2+lfaNiUFVkGTABznywBw287lLtU+VC9HYgBJgc/K9u2dc29KpXtKxN//35D+/99PvriciwXiUk7/UgrotDgqhzm2B6b8fv2jqkl5SfbG6PaEw5B0/Tt/kV97DbNK5FY3s2o+fXFWhrKgaDOzeiy5rXoVmbD2trrHFZ89r0vyP+uSJeGhBKydsL6YdD9r6nRsFQ5Mw8+8N3JP2fVzemf7J7O2Lxz9oaa1zRqg59z56BP3i2f0s6cuosLfjyqLaGNSzGfypRssJJtwZTVzWp68X1acfPRdo2D7GKZeRSYv82IbXp3simlPLfY1RY9KfpvmL5oia1iQk9OvPnBTwdyCtFqJaaOuRJFxLL7C/fpttX245zr854bN6X9MkO38/QHwRMgCuf60edL2/Ol+FXKTojJPZZLrN5YeuKi89S60Y1KJORDz5zWa7bLvbHun5X1KPIS4Lp+Y/y6acjLnU/tg+Ob8Soa5tQ/vES2ph9QltjjfG9mlM4q9APr/hVW2OOhnVq0JtDL6SJq/Pp0An79ILWjFAS/9makZ+TPtp7XFtrjitDg1nDa0QvfXJIW2ONay6qS8/d0pLuXXKAjrvsG/WY65tRwYliWrPH/vcbsOuay67ri/2naFHG79pacwxhJDGyewg9lPIrHTppfw9uubIhjb2hGcWt+s0nsQ29JoQ1/rr83vrCxL4tqC27v0+k5rNOx7p6NqlXk15kRLl69zH67PuT2lpzPHxjM7qtYyNa/HUhLf+vU1trjtjIJtQ3vCGNTjlAJ0/bB8TuZfvewUj1gWUHqIDVRztMvbUVnWLHm/mZfWdxabPaNGNwa3pzyxHa+uMpba05Lgxh9fD2NvQyq1u7fy3S1pqj2yXMQmsURGuz7OsLVO0d1zSh6y6vTy9+cthNjOpfVmrpltn6/lc2ou8OnqGTZ5TS+4plRrbN6teiyMsa0L7DZzipC/IV++KvWmpS/do1eYcBYtfvB2W9cst+mrx4u3a25QQIMJCyduoA5cfFMcr1V7Yx3Y7StG5t5a3hlyj3XtvcdLsodYNqKVOi2yifjWun9AprbLqPKPVr11JeHnCh8q+hF/Pjm+2jL1HtGvPjXtmqvul2UVo1qKMkj3Qorw1uq9Q22a4vzerVVpbde6nyysC2ptv1pWGdWkoK27eHo6Hpdn0JbVhHWfPg5crtVzc13a4vD/Roobx464Wm2/SlXq1aypt3XKwk/vMipXZN831Qel7WSFnMrh/3ql94iOk++nJLhxDlU7Yvvme2XV9uCmukfPpIO6VjqP0zQBnapZmynN2vZvXqmG4X5dKmdfl+T94carpdX8bf1IpfF54D7ofZPij12bap/9dGWTcmTGnXvJ7pPvrS74oQftz7IluYbteXB69robx/32U+r6tT6/pKKqsDN17u+77iWEtjLlUeur6l6XZ9uYE9J9Stjuz4Ztv1pT97/h/ef5nSvL79uaLcEdFUeW/UpbwNm20XBde1dvTlym0dm5hu1xe01Y/GlG4HT9/VlXPOkkn9vNaXpwScwYmggB3qMsZ/eWAoVwZQSVbAftPZfj1Zb7OOKamv/mfd49UOuoCmsV40hPX8k5iSOOGjd76oSS16sncLSvvuBOt1rM0ZmIdv3NGG+4ig0uwkcXCtC9j5tua+p1c+9a3oYHbuZabsTmb22AFmz5T/a0W/M1MO98EOMOU6MFU5Le2gtsYaE/u0oJYNg+hFtq+ZdV6fqcMX2O/ity9k9wFmXPoP9mrqxrD69MTNLWj5Tidty/tDW2sOKO/4fi25Ofu9D3MW6jemexN65qMCW/XbIbQOf17/yf2DZjOVZAccr0vbuux4f9L8rUctFSVM6deYoo901KMX1h+kvN/tFS3O4fHezbnq86Uoe1xajyvglzccsr2ujq2D6eXbQmkmq1cZ7NrsgLaAfeFygaq1A34f9WAKuy5fZj1U+oSo5jTl44N0rMjeAsGzHc2skNc2HeaBGyvgumYMak3LWH35hLVFO0D9JgwKpR0/FZVSqo3rqSOvREAmrEVtXhfLg4AJEAP4rVCHPRyQWi3WqO0qaGMmcRNvb02d2gRT1m8u1viszTM88AR2zJYNguhZ1kBOl9jRlHoOaNjY7x0bs8/BbjhMCJiJ8I+dOmNNqpDfU/8vlC5mxPrCeravDwK+ljWm7szsmPu5xzdkhQevb0phzevQq8w8sqlL1K9DQ2ZyNKSprDL7wkjW+CNZ5ce5mnUWEYwY3hrelv5g1/zPt36i93cdo9U+zGkQxKS+Lenrn/6gJYzU7ICOBSYqGt0KHyQBUw6mPzqVXwqth4WBJNGY0JBAaHaAf/IG1rGCpP935LQlqeC33xzahtq1qEMzPj3s05RsxTqUabeG8k4rMf2wrZnuaFqbnmb3a+U3TlufLogHJvKLrAP21VnCR/dc/5Z0OSOAV9j52pEPhMVTjPwmM0Lz5VMGoT0f3YoWsk7QV2fVrH5N3mluZp3lXtZ2rYDrAhd8mHmMFztAsMD0R6cCUjWiUX0PAd7JTPQ377yQGrOOqzyocAXI6gRNZjcRF4NexKpywH/zOutxN31/kn49Vsx7XasHCd/cTFbpQX5Pr/VNPACUHxrgv9nDtNr/StYzzWLn0DCYqVDWOx9wWjc8VLqn+7agzhcGU+LmI7T/sL1CALnjHF7ZeIgTjB1AlAM7NaIVrJHYKVX05Hd2acz9aEXF9seMateA7u4awq7/d9NzhTIF4bz11e+cAMb3aubTP4jKjO/gPiWw67Lhad6hoMOCPx3Kx27ferVr8Ma/8ptj9LWNogT5YT8og7f/Y3+ufcMb8IAHCHVAx4aWHfFVrA7MZmoSdQtKypfPrT47V1g2uL7P952iPb9aN37U22kDWlEuU5NLtlt3AHiuTzOVjPaSecCe/IBHb2rO/Xlrdh+3DRKhs3ycKfXn1/kmPygvEBX8xB9/a6/SQPwvMCEAi+mtr6w7IVwXRAgsMFgAdoD18SojP2AyEyJmvNG0YR1tiWhMVGvamHPCp//dF8qhAIO0JW9APkNZQKFYOdFBDq8NaU05Bae50/1ZRmpWJNGcVUxeQVmv+2Sq7+AEcOtVDXnPj8ppZc6hMb3CHjhM8Pd2FPrsdeOiWvBjonKk77M3EQGYHHjwu20aCACSnsSINffoGVpq4ypAhb//uqbc9PdlmgjzDOf5saGCwNSbc2cbbj6MSTlAfRhRIIIK5WOHqy+sy3v8omKFnmMK/IyNAkcDgfLDM5vBFK1dhBYdCzpMqD47UxJKGuS34r/HfJLfDZfVp9jIpryjQEQdz8EsQNH7igb0CjO3QGobsk/4NGUB3AO4EmApLLBp/PweMBMVRAm3CtKRzBDVvgF3J8SvKeCuEl8YfHUjimYWANpB0jbr+wDl9zA6OUYmvsgP5APl9duxEpqdbu9SANB5ov4sZNcP14IZ8PvP39KKtrBOwpdSD20URDMZHzRkdRO8ATeQGS7QdaO/nqrh17n6QuAEaKIABzGTo194Q+5HgklrBvSKYPrMAy7WqOty5XfQgtQuYebDHEZ+aLSozFb76YEH8xB7QOhBYJ6Y4aZ2qlmAhwfis/NRAmpUsAHvbf/t42ECUHOo+L4UVa2aqplem/2ForJqJGj8429qRs+wRmJVOQRQmWGeHWCEAqWqhzD1fmSKEJ3JQzc04z5NPAM7XM1UL5QMTm/yxwV02CY6DMUHnx/MKZjTO5ipbIfR1zVjHSJTi+z6rYDrnxzdkt7dVsg6CXslAaJGJ/wM61RBwFCtS03UF6K3UMhQs6gDb/jRmOJubk7BQRdwSyWZqUUrYsc9eJYp5Sta1uGm3BGL+wWFBpJ6itVtO+UvgE4QPjfUEnQsZyysK3Tuj7F7AFeRL/JrwQQGyAeZFlBeduY0AMvi/5jAQPuG9WYGXFc8M9Ghpl/3kR7Ff5/xQVNmEb71n6OW54sIflgzj+j6Iq/E1lXkLwImQISmAXESuOloUOhJrcLs3JRlF7v+u+PcNwXTyErCwy8I/yCc9HiQduapAI4PaY7eF725Wa+P1I0HWaP7L6v0UJ0wfe0APxIc2Gj08KP4qiAgYDQuuwYt8MiNzbirAIrGyu+FBgyyhgPbV1oKSBdmDFSV0f2AvLbZt7ehdezZwBx85Mbm/Lef+8ie/EBkUxmhgqRfZSoxm6l2O8T2aErXXVaPB7/e8aHUbmbqpzfrWCYzE81KUSKAAfJbyEx1Xz4k+NtgooPQca/gqwSxGd0F2Ce8VTB3DZQwDnvxE9/+VDTAbhfXY4pK3fcjm1SSB65vyn2l8FP+53/mHQCU3P3sXj2x6jeu/n2hHSNTuGAgBNayjuU7C6JAfUFe4rS0Qz7JD6SD9hjCLDLUF1+dK+o2OgG0gddNfHTArew+xTHy3Zb7B7MqDpkG3gTE74MEYXqvZia9GeBKupmp9f2HPNfTuEGwtlQ+BEyAAmeKz3IJ+wy76Wgccyx8LTAzcLFI8B3SuTHfz8p/Ap8YGnIdRrKIXvpyyArAjwJ/HsgEEScj7ukWwn1o6L3RSEEqdr40kOUYRuponDD7fJmeqEggYBCar5wwNP7+rKeEz8sq8ID8QVzTVHYPfOXZCbOzBVM9yAnTkyVU0XRmjiUyMkCgYzhTPv9gHdbTTFHaXT+CAupzuIArry9tIvRAH1ZJcX+RO2fn0wXaswYNpQaTx0pRdmSd4AvM7AX5+cpdgw8Pvjk0TDT8MTc0ZfWryCvwgQ7iDdYJuJgZj6R4kDs6VztzHkBnHNujCfcnvzuyLc3adMTSp4lniig9/NpWph8i03exTvXxD3+jn20CPgJwA73EFDjqylOMDKwsC9wvmJ3ofH0FcuCGgvJD28V5+mpjEBc4NqwWKGozawz1ahzr1HcdKOLixk4r6H9/H/tts6AH6t0rg1rzuMLcz494KUAM2asIBESA+mE+FzCKR8ODzH+emUdWF4198LBhTr3LCMjK2Y1GNCW6FW/QqMy+fHMCSIxGTzL0nZ9Kmb442wm9mnPfEHrw0axxvLLxMOWzSmoF+IeQQA2gQvmqqLgl8A/99PsZWu/DiQzlBRPlN/b7Vr43jJpAyg+iwnZRNgDXJ8zOFEb8qIACcPJDQcEPhRQjmPIw0aEknDaELtIR4COFL9GXmwBKLe7mFvz5o2OxM5PxnHBtUIhWKgXki9EgaJy+yA9WAnx56NgQ8f0HU0HXMnPxTV30HeY/3ClInflP7im6kxFQPDOTfSWbw6WA5/qvL44yy6Epv79W5irUF+oZTNMXmQIzM1GRvA4TMY6RH0jSFxAgQucFIsd1wWIxOy6ePe4X1L2vNgMym8HuF/5CeflKuwIQHcZzwDl/YKLEcV0gdhDpC0xNWrlzAPwu3GC4t+ANtElj0ANBUmRnQOkikAf+2HNA15lVJQEiE1wgNjKEMzXUhFW0FZn9cBqjUS9hDckqMIGGiXQQqBKYsAix+wP4iOB/RKODaac300DWMIWQuvIYq3RTWWXGyIntNr4pRK/gmAaxIHrlK9cNgJppyxqZryx/EAr8fgBUkpkCQ2NFBHUua3R2UVEBYXaC+Jbqom0we0E0SJXANnQAD7KKimdlR1DCKQ7VjnsJxWMHEDoCGegEEBW0Ms8ApDO9xBo0hoNZERuOB/J9ixGkr7wxdJTIh/ucNWS4X0AYUEmvss5TBNZwPWhMK5n6hSqESQV/FzogO0AxQlWuYg3+1qsaURa7LihoM1zO6jZIAu4HKFZ0hHqgLsE07NW+Pj2Z+ptPC0EAdQUWzUWsTqzKPG6q1IRSf3+X7zaDZwpVBf8lzsEfV80DjPjBZwgozWDCwUhuUH0w6SEouKI2IWgB/D6vW+ze4vmY5Xyi/iPPE5ZRCuMBqN8dTLF/+1t1IUDN/wdcEhJkqybgaL60aW1u76P3tCI/+M1AYmOX/0r//aXIZ3KnAIakPd2vBVddqISITAmg0iHCGto4iPf28KUdOVXiRRJGwNEMHwoqMpQPztkXQNwI/kDG+zKTcT6I/ELZmfn9oI6Q5wY1s8WPaLMwO2HywvQVVQ/kB2LAOSEQgfQdRIZhyhsbpx4iIneaETPMHAQ97ExZ9NQJA1vzYAoan688QihV9PZWETzhFE/aVlgqgm0Eni+CDQdZQxb1ZdxNzbhago8XENeDZw6XC5QE7glcMb6AYBLMs7aMkIGZFmodDRbJ8fCT8jQSk/OGOu4ZVp93Pv6Snwi6/Fx4hj9XpEkZIToLXLMvlY7OAfcWfvc27Jzh0/YFBD0gMJBwbTagAC4i+P1AqHYiCMD9AVGjEwQRQgAY2wAsFpzjG5uP8GGuyKZwlaj1RT9zepWawBjfJ/DCx/mWDxSK4zZGDlBhq3Yfs+ydEFbvenE9rjbgS/QVmBCA8oSiQzQK6QTo9fVjN5E2AlMOvdJARq6XsWU9SRgBMy6ekSnypvxRPgD8Qwj+4GH5UmsgSvg3kRRrlm8GHyIePu6Tr1wsQJidIBQ4sUUSNxQPGjr8rGgY6Big0GAG2+WNCfJB0nIwU6pIT7IbC8tHxTCSRVIsjmuMOhsx7B8h1IERs1W0EWTKf5/dH1/kB8BaQENCZwIgTQkNSKSnCCc7joV0DKhqKDirwIQeIB/087iuTnAjsI7ADLh2dFiNgmvQj0fOmPqyIAKQeYCAk13nowf8iNew5wuLCb5o+NSMwHOGKZl39IxlUEIAahb7wpqBqQ7fq6/OGoEXuIvQEcNnZ0x8R3AQQUL4VBF19xWkgysB9QrJy/OYdWPMFEEgFR0kBiTAYoFPEecAokR1QbxBoIpNYM/X/nfE3NxBLtqTjL1x4iA/q5A5fCbwX2xm28PZd/zplQQQIEDkCsGSnUzliF4fQNQOgYan1+RzEkQlhG/KaqQHGs7z0S3pyMmz9AhTEb6UD4AKCBMFqnL+l/bpMYigocHiHJHOYQQfOsjIBD2sr/QZACNYhNkJ4kEjAITZBpKFGoFChjpBD/oNU9ZWEGSBHhnRSVy/nY8Kv4vfx3ngGfiKkMN/NaJbCK/MZtFGkB9yQ6EyrKKBeiAXDp2mCLZACT3OSAtBMzRI4WRHB4CAGO7tHtbgcF98AZYIyGcVOw80QphpZh0BSA/kBxLESBuzBF74XO/p1oQTzncF9r5cAXSSd7N7NZ2Zp0h/gp/YmHIjlC3MTRzbrqqiTuDegshwbJjovoJqCLygbmMUE+6H0VTGdSE9DOYwnoGvoYOwfJCWBBUIVwWSmPWAyoRfHNYkzg3nCZNbnyOsV4AN6lUTBYg57YzAUCFEQzFWFf4TKz8OyA9+QaQ33HmNfUK0EaiYSHtA747GpScgJGHCpEavBKChvs7UnJnJCYD84CtDj4SGiO/5mgUElX86Mz0QFUMFRKOzgkjPQaKp2agIVIqXbmvFGpHvhGQADQ7KCwoM91YkZoOUYLahoX3AlA6uBcGBD3aZK04BnB8aE9QJOi6oGL0f1QxQnlCgaPDose3UBExEuBUw1NHM9BSJ8XB9+ENQ+N2Ya5tQ/Np8Xl/EsEeYwUht4aqQkXkWM3kRREH0EvfWl0oCoOjvvbYpD3pgdAxUs1m9wW/C9IdZCaAOGIkdjRgJ9FCodp2PHuisQRY43nCmmL9gz804OkQo9Qbst5FCZDcmXpAffKRhLerw6LCv0S5C2b/NiBLkhxE6+nsgrgvwZ+ggApTwU8IHjzpmHJoK8nuUET1MaPhl9fdA3wnDLSOA19BWBMqtAI1vNIO5C6kLgkBjssrdEuSHix5/U3OuIPxJdAaQYwW/F3pI5NIh30gQEFI+noCTmx0PNw/E8ynrbawmWRCBAphIGMGCxuxrtInqy1CH5oEsYPpYAX4qOMdBTs+wBmsMeoj7BRWLntQuegagcqLhwUxGY0dDFUCAA4DpzisxU4Iwy60c94BwSkNBooHA5+mrgaBnhu8RQOO2UxM4PqKTML3Mhi2B/EBWuIfzdddiBShO+HzxnI6eUuseghrIpUNwC0oaPjF8hgsAKgXq0J+JI6Do8SzmfnGEJ9NDqVsRFzqauuwegwjxDIzRbKQwId8QPml/fLkAOiwo1X9v/Z0uZp17s/pBlJThbS1wZcvuF0gQw/zslBef4IGRH+oAUn3wXQx99AV0GIiUN6qL6afIqw3Dl4zrgo8c98dXXcGoLEwtBisJzxltVp8bKMhvkkZ++ntgNJExB6cATGC4lOBPLA/KpQAx3bYRPOjBKikqu5VTFj4/5IHBqfzOPW15siqczf4A0VxEdaGkhrDeCT2byCeEr2vK/7Xk429RIeHHAeFYJeTyQAFrnGjESHsBkfpyjoPIQGj4LVQMmJl2GNFd7f2gKkWDFcCjQ3IrRrxgu52KFICaRa5jr3YNvMx09Mo3hdVnJFrAFaaIHtqRClcxjCzgw8U57PzZniwBRJvhWwVSdx+zbQBoJM+NG0ahXSIp1cQ/KNIhfv+jhCsJX1ePxgFl8hojeDG+Ga4OPAs8Q+FkhxsDzxLPFI0PStHXvRWuAyQ4w7yGq8IqSo17C3K4gF0g0mpEGomj1xAaNiCC30soetQPX0EhATG7C9T8/46eZiq0CSdtvVsBkVOkr8D8RUcF894KuLfYFykxuw64OBH50wkgnQWqHi6rkcx0R9RXQE3NUgcabGBmrFlQRg/EADCpKywSuGKMOZeoS3ryE/cAdcpoIgN6sQXhgMEUPiuND5RLAZ467W0aoKFDtqO3t2p4mKEEJiv8cYjgoZL5SrAVQCVFCsV7Owt5ZYfvUJCb8HXBzMLvY7hO5zZ1uU/ITFTBJ4ebjTQXmHOIuvrjHIe6hBMZZon5LDMOirojnmYvXkn/2bWX5nyYQVfGraO16ZtozYJpFNtV243hEaZ8ueOXNVBf+WgAfhudCx4+kqOFXwhRZUTLMKIBw/ue6N2cETUjAxNzWw8ESpzsGBiKhpE2voaDccXOOh8QNxoW0lTscP+Ti2n09MXU+7Fl9OHCS7S1KqAMoWTgw/JX+YL8QCpieB3q2yim8FCXzjJhjaRpdHjoHDHRBSZBhf/O2PGYAQ0bKhjuEJjVb35ufi8wuQDSnY4X/UnH2DMTZrXjyY20fdNKSl7zKf1nbih9+eMfpr5eKzzTryV/nhjrDKsFM2zrLSJO7uz61Y6qyHYmHnFvIQJAzlDIzzOLyJd7CZkMV7cN5p0RzmfRtt/dgQ3UMQSR0GlCUfqqK1CKECAQCLDKYOnp/Zggv4d7NneTH+oUfhOuJyScm8HobkPgzy7lxh8ERIBogIBeAeIBIYIKtreKtGLuLvRE8PUhdwjy3Z8B6AB6HVRSKDT4vUBaCax3wg0Qvi48bPRMIDeMmbSaBgrbQZYINiCK9fn+kzxQ4wsYSYLAChQTnzdQf5FdY2n2x1l06NQ+2rBiGo0dMYS6dr6C6re5nC694goK7xhJ0Q/E04LPs2hBHzUi2r9DA954rXyTesDn2f2SuryizNEpZjGeGMoNfrvR1zelS5owJcwqhx1g9gvS4YTKzsMOMJ9AmPg9mKtW8wsK4Fn/c/C11FDzVYc6hqgLDMJMhf/MH+ULJQmz7IfDp93mGNQQzFUEgHD/kOyNOoIk3DaNg+gFppRRP0RwyA4i4otqDcWFYWRmgOUSwQgCOaSXNFVnOxIYEt2FQvhSCNVq2dJyHLoZYKaDYEDcMC/h3tCrO+EmgdWEjsquYwP5Ic8P0etFjIDhfsC5/OpjKCl8n/CrQqXBxYGOVCT0w+eM9oVOBq4FdFh2QEeJwQxoi1DhcP3oBx2AEB+PasEDlCIXE7+NdCMc26pe/YlX/+lgDDgFgoAIsAbeQMOAKesF7uvRlD8Uq2ggSAdRHiiXAcxs4Y53Pxz+AshhU9h/ePjI5wMJImKKxoSGuesXtVfk4xrZzUcvYjYNlFB+mNQAGflozAjJ+wKIewQzCSDhpzDT0xNNjqCxixnxfbWQxt4STiFBLjr47RbK2zyXlk0bSzGjJtP8pWlMlWpEHxxOg+NjuWMYkVlfozwA5GLdfnVjOsZUx7q9J7wUM/KwkNSMjgR+UfhHUYnNEqwFkGqAXM5fj5W4TRNfAGEiUgy/Kiq0Xc+Le4xE8rcPeXr8kNAO/C86SszqAn8bftcf5YsJE+CL0qfZTGaECN8afLtItG9Qpyb3CyLNQrxPxNdEDABy2DDGF1UWJhgI1Kz+4tkjuIb7jBmM0HHpAz/sqx5c0NO2c9ADzxZpLpi1BR0sGrUxCwCKHqSCHDuQrtWzFZkEPx45zYc9IvD0ac5Jr+wIM+BZoE7ApYL6gOnD4EIA0NFALGBeTdwXX3UF34dShE8dyeOwSvQ+cqh2ZFu8wHhAjO+HOwecgBxVO5V69zWNtKWKQ0AEiFfpAUIBovfox9QM2NvsAqAeMKAeIXU4b5EQigrkL2A2XxUazB8+eqfm9YN4JUGP/+KAVpwAMAQIPTh6ym+YeWoWeRbKD05r5A3ilYJm+VVGQM2MY+YqAMeze1hc13ha89NWmj0CxEfk3JtCcTc0opUvxNA7M6fTvVPfpuVLE2jCqIF04+UtqP09ifQNU8hNOvTlPhxf77EAML4TQ/L+x3pe9Jb62VCQtN3z8nrcZBHz38HksxviBnOoNVNIMOGvu5SRJVNgvuZXRG4m1AdUAWaksZoCCRDPGhHdVb/r9gt10ONQaIz8EBzD8/dngguYZd0cdb1UGRorSABjrnE9yAYA+YFzQAD4bV/D5wCYu7BEgGLWuNF5mxE76hxI4cnUfN7Rw+zVz6wMhda/macpCbL3BdyHR3thyqqDvH6DYI05sKh3mCgX/IoAglBMRnBVzYgH29GxIjcVbdGXn064ldB++LA09qyR8qKml6lmN94U1wTCgt0fYzqOHhAf8DvCLx/Vvj4/pp58ETTkv6Xr+JHnB2EE8rXKJ8a1g8xDKmb+Ay+UiwCDmIqAbwaVEERiZcpNZrIePTVC4Jj+x1eCrR7oIRHtwUgOmAkwHYUzF0oQ5hHMN/S4GLIDUnxzS2lFh+ghyA+RQQQM4EhGwrMvwEeHSgjFh3wyt2kyYCHt+XwaRTOTiEoKaNtrA6lVRAy1aMHUFZMrSLsxot6WyXT4xUdp2/Zc+sHGhyOA6CXMWwQnUFHRAARg9k9i148xzWhIUIK+RhmI4BPmnht6DSNLdk99Ja8i2RUNE8QA5We3P+491B1UndnrAvqwSowUFgQs/FG+6Fjvv46ZZew8RceKzhD3BfcCATcEsjBHIrarfrQSS/+dHlCz6CwB1EvcC7NJEVD37mJ1Dp07hmQhOKDvuNA4Echq5MkM8wtiVmlE7KH6kM2AlBZ9niquL+LCYO5r3MiUnFVEmgezGPlBCGAwAAI/V7I64WtYpnArrf/2OG3P+4N1dKrZKuawFAGPpvWC+HHtZq0BAcNMRuQWwY/l//Ue+ICsEGyHC0MEznAPcE9BiHZpV/CVo7OanlaxbzQEykWA+IueBqRgJbPxEGGW4P0RUAYgSrsEWz3QsKF+eJ4ZqwSIgArnMIgQZgF6beB6dtP7sAcPv5/RhAH5oWcC+SGIoDplfc+qjCALkq2PsoqFB+R2PIP8VsRSOHokVwGlPduTbpyUxnOj4Hw3OwcRGdx/eCPd/M/naJu23gogOKS7oNKjkcP00DdQ9IifsMoK0wQBEDQeu1EGeA4IPmESzffuvZg3aF/Jq9gf+ZS4FPj87NJ9APjS0EmZTm9VpxGFMcWJe+grcg7ALHuOmbk4TxEMQOpNP6Z0cS+6M7MVpijMJvh5EZlGou1LrH75Mj/hx5zGzGS4YRBQQEdo5k+C/4r7xRg5Ii0G5G+c4QWNEwnZaUd13w8OoSht0QzwfYqIM0Y8oNPAvHn65wGXC0xjuDtAcFbJ8XApQPWC/KDcUGdhSptNMGAEXAcYZgf/MSaHYM3UPXMz6hc6XaT6IJfX1ygnXAOi7xjpg3PW53PyAA6ry/pEdHEPNmSfdOexmgHX0ptZa+igfv7dd6dZVpSLAJvUr8VIKtjy4YAMYJZB1k9mvS0Gaxtze6yABgDChLmBwAeij1CRIFuoCCgYKEGYb1AE8JPgszHiJ8gPM0o0Zr3QINajT2Lk5ysyCF8FHupuVkHx7lWPaRJLaxZo5EdOSp/Skwa9lsd9emigZucA6Y8eGuYDyNzMx6SHiHiC0JBPZjQ9QP7wzYBI4JtDp2I3ygCN6f+uasR9nYgkv8aUgd1U7gDSjdAIoHDwDHzNMIKEWah1qHHTiRbqhtDv7HzNpikzQqSkwE8rlAGeORQsTHyMUoBPGGYTyBFmMoJTxk7CCrBYkDqDKe1BsGbPA24PWCtQyxiVARLCvnogMIVsA/i5nPrfDWHKTVs0AhYLVD0mrAXZIBPiC3Ye+qAH/LggXpAtrs0qQAV1BpcC1C/ID+6lZ5mKgz/Rl28VgReoNpipsAoQDBSdByLd6LCh+tHp+TKj1SDSBfxlZT+x69JngLDVPG0M9Re/JdaJe5BkwR0A3DrwveLa0DmccvknnMqCwAgwWCXAxowA0eDN/CZooPAnQLENYxUFjdnX+2sFeDIkawAYk4reBD09TBYkcXKnPas0MP1gciPqhfHAkNxGs0pPfsWsgiIyjAbkKyIGQoVvEVEwkRwt1GLchpkUHcoXyfnZdOrPyA9mEkgJFdp4DrgPkP5QHTDj/TH9oXRhCsFMhzmnNz2gYPFbiLTjHDFjjN0oAziY0ZjeSD/MXQaYrRv3NHr2VvqZKfEzv65llO4N4RdCA1lW0Ika9ZtICxYnU/LiORTXy6Ht5QGmOMO9RVqM1fRWSNja48MkA4RZBnIXygDXjOgoiB5T8sNsgpsD5Agz+aGeTTn5Wfmn9Nc6l3XIIDf4iOHo90q/CYuiweOmUeqHy2hx8lz6/vdgPoZX5HHqo9VonJj+CQ3Y31EeACwm4c6APxHqCOkmAjD18JwwnRbcGnAlmHXW8Dsi8g3APworC0oQ9cVXVgHmLLya1Wuoeigx1DfcC9w/+DuRwoIoMjs1nz7yO7o0ZmZ6Xa4UXayNcHeUtg3ANaA9v8Q6CaHMMXMSJnngSdHqqlKA6wkWFchXzNxUXPInLxWJgAhQzAZzVqlhSSZQbIjCIWDRokFNnwPlBdDokMyKi4a/AL0TzDcQLff3MbKD6YDt7CMnw1/YORiHUIHEBPkdPVXC90ME2m4yAADKE+M7kcSNJFtUALdfbcBKGttHTXYgZzol9E/kZgqUCc7HmNIjzJNWjWpxp78/7zOBQsNgcahORPCMpgcCALgv6CB8zRjD/Zd8pMxh7kpAmhCOyboGGn5LJIViMEdoB4ruw3fnAAHhHl/W5ykKfWIn/SvlQ1o5O55iRwynYSPG0oxN++jnDXHsCCpA0mhAX/54iidG63FLiL56lZDiQ/kCUHZQNOJ9F+rUYN3o6yuepvh3v6Bv92ZR79cyaPYHGbRtw1x6b1IUvz5r/5T+Wq+kwbFNeQAKakScTcS902jl7sN0/NuN/FpvHXwnXXjtCHry/b2UuOAx+hezGPTkCoUGlQSC9pU4rgfUHPypIGscA7lwUJWCGBDMwb2H4gGxpP/RhS6LGkLDnp7DOh/WAS1Q06ui2qkmKkgPUWsEKaCo4Cf0ZaryUVQYdgq1zIQL2il8dfD7wTcOVYs6hU5NzH5tBeyPzhiztSCIZPSpQ5Vjggr8lniLI8QMxlnj2FZqHW0XaU+Zv5aeFarCVaDZy4J9lfhh6guKUerULP1C5EGdmvCXbOPlznhxc5O6vl9gjoKXK8++/SL+knS8nDyEfW9F7GXul0TjJdivD7nI/eLykd2aK++OcCiN6ngf39GkrvLB/Zfxl3df0bKe8vFDYUrfK3y/7PuikGD+ewOuYufPjnv3P5rptocp0zOKFIFdb4Ypvds35i8HX8Ku1XgOeAk5XpyOF2f78zJolHu6NleWjbpUea5/a+UFdg+M20df14K/5Pztuy9RxuBl2N1vUya/uV7JyMpVCk94zk0pLlKO/5ajHP5iujLupobKO2z/SX1a6471lLK5UNtXKVQ2P+75jVcT3lAO/nZM22aFIiX7rb5K4+Da/D7hfIwvHMcL0z/N2K/tD2Qri3TbzQpeio7jiXvZtvG1yjeff6MUnNIOYYXD2UrqiyOVdobjqUV/rceUPa96Xrbd7u7pSmqWe6MF1GsV32nfop6yntUnPAf9y8AnpuuOU7hZmaitF+Watg34y77x/S5sGfWzbeNg93a8FP/9+25SJr36lvLNN3mK64x2LFO4lPzlFysNaqu/jxe/m9UXY4m4sAF/OfyFjdTfRf2eN/RiJZhdB84L54fzxAvML2tWt9T39eXK0PrKGrbfMna8pHscSgirC/rtV7PfwvHQ/sS6ay9pyNfZHRsve8cL73Fc4zFRvnj9ds47WQvvLrUtkBKQAqyFpCwNdTV/oAD8XYjGwtmN6Cmc1P6YfULNwR+DHh1qD/l8n31/gvtH0JOgx5m+QZXYUDfCD6gPZvCB4kNa854Dg+ERSMC5+BqPCb8ShmVBVcFEgu/Dq3fvM42GR2px+JPbaOcbh/iQPPRiUHfGgArGOmPECFSXWUqOEVADQ1mvj94YKtRoesAMw9RiGAZX2OlpGvT293Tm67U0dVw0RXZ0UIj+HQlBwdSw9RXUvGc8vbnpAN16zwBatVlvfjahuu7H5qSD6/A3guZ9up8ef3oCtWxtyLcqcZHrSB7l7M2hHO5rDKbwAXG0kj0fmHMIeugd7jDj8Cy9PSPBVDcsgqK5ktQXpmjC1Od5D1Mf8F/hXjbv+Sxt3/85dbmxC7Wqpx1Cg8vJzN1f9tOJk5qabx5Og59Lpj3fM4XOjuWNJtTcPXFIIX37FtwwETT2w3205714GtxRU/QC7FpP/55Hp/J/pJ8Oe64VbgLummGKHv41/TBEU8Cc1q7x4dEj6K1pD9I3DbpQGKsvUDeotyK4U7/ONbR6zX+o19wt9MqTD1CXLpdQHfc5m6EOnQ4K56oKeYyoG74ivhi9AtWIZ4VgDhTeHV1UywoRWlwXLAv466BA7cxoMUU/Lh+5yXipkz56jTYIJQurT4wTF24Mq8klAFgfOC7eDge/t/6YAkIBnvjjDPc5Lx11Mf8cMMxY0Vd5MSbSrQDbNGnotW3OHRcp90e24EoGvYl+m12JiwpVFgy7RGlYR+3Vnu6rqiCovUuYokPPgV4F29CDoffpFdbY6xitGtThivP2q5uynqQ2V2Zjb2BKSbePWWnJvvceO198D+oTKtS4T7/3c7XeV1FOb5+mbHg4jKs74zmgxHRvzrfNYcepw5SgcbuxdGpdn/e6w1mPjPuGXlC/vT5TV7iW9ZPjlO3fHdLOQoeiQiU/O1vJSFumvDt1lPL1B8nKl9u+V4pKtO0M+Z8+pVNIi5geE8hWUu6epewxHra4UMndukqZPrqvt7JK3KXtcFA59G6YchVTArUmr1Kys7J52f9djnLi1/3Kyd/2Kz/l61SpJQqVr55Rn2/Xi7Tne1eScsyggM7+/q2y4Y2xSr/2QbxeJP5Tu7fdH1VS9CruMFNfbB9xvje3S1ZOapvEtWbkax8Fip3KqX2fKMnPDFCuZ3VtzYOXczXqudZ85ZN7aylvDb9E+WbrN8q+79Rr1Zfcw9qutmD3hz3ffjprZOCrm0tdq+Jy8ue5K32VkrJkmVrSMpSC//2knNb2LUx/iisqfywsqEsoqq4XqW0Vlg6uEfe7PlORuC6oyLfZ3/tY2zV+X1+gzqH4UL+hJttoalIUHG8R2/4gs1bEOrSv9++7jLcv/b7G8iyzfKzalCgfPP9/nHe2vj5EWTcmTLmyFat/Jvv5WwIiwIT7rnMTYFhrj3mHC8QDWciI7NYr/TP7UECY+B5IC59HMQKZz6Q5zCoU3HCswzZ8xoN6uKc3sTWvX4eb3SAfkCjIFA9Vv49ZwcNJZt8bdk0zZUIvVgmYOWc0Z2vV6KukuvmvSPl93eXcjIFJ6r1fkNI/PIQ/RH9Nf5D7qgcu5/cOlcTMPBjXs5Xy2b+XKoc9LZmhSMnfsUyZPLCrez/cP1R0EClM3oUzFypfuxtmkbIrMUzbV0eAzFx2aYscR5g5mfCg0k07ZqkSs175Xds1f83V6rokD52WHSop4P7jWBddM0k5eELbxODKS1dy/n2TmzTQQFEfYH67z6lGmDI+zcNqRVuf5+sHd27KnsVKxX0L2LV6UTIznUGq6YwM4M4Q9w/1gB+XXas4auGmSOXTR9ops//j1NYEgJNfKSvcBNNVmczOuVjbBBQXfKlsSvinqSmPeo061YLV83Y3P6W889q93FSEu8e4r77AjQQ30c3tVFJB3Yab4S4QPPv80oALlRkD2yrP92/DXTb67xoLOpyZg1S3zofMhAeRGveZ+n9tlFcHt3W7qQTBxol7alFgjuO4vvZLfqov5529c4fwNmi2T1lKhZnAMH0R1YJDFi94NpvNwQxI0cCQNEyEiBEGMD8xG4fIY0IUCSaHmJoeIXfkfelneEEkGOYrXsWH/eAQxlhZY86WERi1gOmCkNiKqBpMbET7SucHRpOjrbZIR+hQ2hkemMG07XqIqbjwfZhyvucURK5fKE8jgnMYjnmjeYCRIIPveZO63ncPNa+vrXTl0eoJPenia2MoYV0mXyVyrTAkEMuIjsa/MI5umJRGavpoMEUMm1Mq4gtzmb9vv/gX2vrmKGrfshMNfTaJ1KOWRofPDpGYiS24UT9tyR+4KOeTFEr7kpnRMKVRvs2hwp/zKJeZ1TC/Lmzcl75YO5XVJfUbzi2TafWTo2heSg4POCAiixEZiMqLxGgVeZQhhhoyBIf1oAXXNeUBoH2H/iR3LWDXyh0F7P6lvxFDvcKvoVN7N9KML4/yuoP7B5PNPTRyaQGJoza4aBAfefLraRuz140C2rY0lX78YR831b9n13n0p310JO8nWsfz7BwUt+lTmnpLKPHWU1JAPywdQ+89Mpyin1vLrsYbCLRhWJl49cSx7XOo3t7PeRTVLqcWJiVM2w3ZJ3jyMdxKMIMxqghj3xHAwLtGMHIGuabGUShGIHoLVwVMU5i9xqR7BA3xulExFwB+D5kgCCD9y6YtIuqM99pghBUma7VDfc018H3BH34l0/tCYASoRYEBkROI2Z9xwbgpvohHQKRoIC8PuWN82NdNzXmqCkgPc4X1YoQIfxhuKMjSOMMLz4IfpM72iwqKYVtHTnpyjqwA8gFpIt0C75RA+N84Y4Ub4yLocuEzKyqg4uM1+UPWAyk3IF7cA5yvr1QbMfUPT0lh14VsfGMED/61Z/oNpXZD7qTGwifkyqGku9rR0LneFCVyrZCGgnGVokOhd8dTqtg1tAsNHsH+PuYgLZNHxYkMeqVPOz5ri7Hx6aGOXviNjmp5zCEhrfnf2gsn0af/Gk/fLnmC0udNoPvui6GYUSipuuO5KP/TGBp0UyfqfLValj5xM614agwN3HSE5x3+e8VrdOGFnI4ZnFSw/zA17zWIjl16I42KrMPrBnxDB0901HyJmHVnLX3x42Ha/lC49j2GYiddzJ4nH9p1aStSx3toOJJOU25qR/dN+4DGs+ePaDPeU4P7B5+e93PNpj+0zK2gGiGcNFJfHK1dm6G8ts1Nljj3P15/gHYm9Kd24R1p7the9P7EPtSmcwwtZ1sdr79PL/YSvkcXZc7pTXu3fEYTUc8N/ApBgJw90UaQI4p6g3kC7UZPcLK7pSXPesDkuEBsZFPux8RIHCS5I9KMGWvQmetTvcyAKfoRxcY+yI00dtQYZopkdAwCEL47jOGGPxB5ksbrEsD5IHcRvnSk0Jil1AmgI7hcezXmrxWVFG0mC32Vf43r5TaBozpfpAzs2ITLV5ig3qaJdbnhskZeUSKYfquZKQK/Bj7DNMXn6y5VI8AdWqnRXPwVx0AUDr4gRE0hueHvm3yL72gYoksw02FaGs/DrHSYukXxuGn2KSuaepsdagTvMn4PRnRVTXVfJeG2C7kvC2bHU71DTfeZzvbZ9Nm3XiZq7pLbSu2H78Pkj2JmDnyjYc29r6Xdklzt28zgnM/WPb5Z8XjNDimbHi5tyhgL3Ap4votHvKx8Lr6cvYhvE9FuRDa9fULW0WaYYDDh4O/sGFqfPesRSvpP2q7lxMmdT3K/KXcneF1rvrL+viB+joj2C58U6g98rDAXPefO7lvzp5Ujf2hfzVGv1bro/ao5yk9atHNwpybcv6z366bmaLsBeanKZ2x7D4e3Lx0FdR++OlE3kVkAE/SBHvZ+OhTUCZi3whSFCQyzFX5yB6u/8DlHhTXm98Hst/UFbQTm//qxYdxfbdyO9oTjIPtDrAMnoE2gHev31RdEnxFNR935vyvtszSQxYH93p3Qk/POy/f2MN2vrKXcCrB5Q/VdFzD39GM27QDJiymvkQMFkwNRJYx8QCItkkpZ58Xz3SDbkUuIIUuYIw1JvGKGF6bueSIofg89GobyINKECJYdxHRB+w+fZmbTKa/zMAMfQ9y7LQkBRnSWTunUHRJJEWlGT4bz9ZU1DyBKDgWI/CmoDrO51eAW+MdF7ej4JVeqJipQkEYJo9K0Dyp44ipTzoh0450YZkPi8kpEb+mk/H3qkud6jtJP/7bPT4SaQOQS+YnPfnSc3QEPMJAdvT+ShKHOTEeBGAAzakR39V0b+C4U/NwmIym8nAE9oOTgZspZ/gF1Yb9ROtropKPL1bny0r47zidMgIul84V1+bx0+kkhUE+mDWjoiWRbCxMTBNGeTw/zvL5RTHXhXSFiZMaFjZ+kGy7iixyuY1n0Ias3xpE2fBhm3y607oKbqPst99PUBcn01fqF9I8bmCKu21jbyxwYL926US23KYoho+qEAwd5ncNsORiRgxeF4T7YjfLBNWCMNc81ZN83ThiMtgqluee3Ivf0WRi1A07A8zW1qDRA2WK4K6wwNT/VHKgvSA6HWv1OezXmiT/sLSx/ERgB6nyAQ7qE8FEOYliSLyBkD1MRc7VhOBbID344jAnEm9UADJ9rWr8mHwoFosOg9f/+8gd/YY4AbghGWSCsjjGb119Wz3LIkIA6YBt+ntP8YeE8kHJjNSxMJFPPLdBfVx1qoiUOw8eCY2A/ECiI2Bfg34T5se/QGf49s3NGcvFY1jBnfHorheps1bwvEylJWwbgIkDiKjoO3A9ciz8v3rmhWU23H88fwJRBp6U+Y10HFxpGw9k54BlhBIKvJHMA1yzSIS5u4kmNqNGtvbdZruH04W/oh02pNP9ZmJqYWiyFluvLJ9toX8YnlPeflfTxK7dT8sP30mubrd/Q1411VvB5IdEd9y6qXX2amKqalwLcd8XOq1n9GpQr2llzB43VFq3gaRVn6U/GnCAdpIGJ2YPUIX4rWKfuuU/Bl/6Tut/UXzPnkyl5xUb6JvsA/Tf3KN22YAstXPAOH4ET/8Bw6tovlm5+ci6t3LSPjv+4luJKpfyoHSLSr0SaDkZQYbo4dLJ4PrguTCMH/zfSaOxepYlOAG2Pu2uYea5/4b4AhAcGO4iBDhAMmO4KI1ns5mKEvx3nCs7AaDErYCAEzgHpZBAXNRnXAMZXcQSKgAgQs8AIhLWsy2e0sPNHCKDyw+mPhwFlB9UE8sv43x/uaZ6g4uAXRO8FfwB6aGS862d4wTrcaLxmEJnt8E+gt7HzH4gZM34pPEOpu4/zoV5z2DGtGgrOFUoBTtn2vx0mz9WFUmhPdQkVHMEG9HLwofgafI7pqzCzCMagYjpvZMgLRIxbSXsO/kJ7N79Ji9m54WFv/bEZhWgBATjWsz9K15bFqwFacH8rRnlAHVtdS5Q7R9BJZ/5bl+La1SJ/PSjw++Cl16bPuHYQnS3+k/fe+pk/rFAzuAZX+mh0mLgA9w/+JKj+W8IMQ+yObKMvX4mktx4eQh37DaUJr4DwMLWYt+/t2RE30663HqHxYx6iLzb9h/53qoQHVMwRRCfZ8/8XI2v4k9EA4cw3BhLwVjwMgXzrP3/QH+KRBiGMZA/1NUFAHfrHSO+RR+gkkBuH4Nygp5fR/8StbHgV3fsShhlilMdwGnZHFHVs34pq1XHrflMEO6Ip7vXh2icV8JFhiB7aAsgN/kKMp/9830lunSBICd83Zj43m3pLD9EJtGKdMawq/VhlAZDTXdc05p046r54WReGrJqRpQCePTpsAHmIYpSIEfx9y+x4GGUk4gpNGqj3xdcM4v4iIAKsibujYW9Bse1sDgJQNQg6vJ3xO5e8IgIL8hPvcYWigumLMcAY2gQHMN5zARNCJJ2i0iJpGNFayGfMVoIxtnZz2oH84DhGL4/xujC53t32u2VyNMgPw+EQ5YXzttvXv+qc+cEU0SuemxlQnnjwSIQ2e9WjHiBsNPgPdx3jjQ+z0fBzDhtOMz7/hbbPHkLhzUOp/dVXkMJMbD6sbpwuWOHMpi1L1UUxVhdjqzFYHH+tTQgHDeuokcvxn+iSK1vRrH3FXmasFUDuiPyBjPXPuK54/OzmnDp5lgeffCOEOvUJpax8F1fiuH+Pr/qNvtcIwnuutzz67yu30f++O8iVjBWuYA0QdQiNA8/4opDaPibZVSiLqfSb2jWgB5iqNXPmo86hjmFo4+rd/jva427WE1YTOhjsbVlgNhl05EhYbvjpQ7RzwduUZXGqxX8co7y9ObTtkxRa9/5K+vk/a+mTrTnktDGwUBeRSI9AHuoVCBfWCaLGeD6YLQkE+RZra2NuaOoz6CE6AcyghPZqBJ4hhkBi4mF0ICBbuILQpvSWmhlwXlCXeG5WrieQKdrgfmatYTIOAUGAJYbZoQNFQAR4RjcgOSvfWuYKiHfO4j2rGBUB8gMZImVDkB8A5edix05hjR+zdWC8JfxKglxQOTH6Aw8Z0SU0TpCf3QSgYjwuUmcWsJ4J54GxxFYvHsd0Tji3d78u5BIevoznPnqBNuuCrsE9RtCLI9QoHhqcrxc64WFi1hYQO8wunDMGuDuGzaQvPk+muBtUmiv5aTXtfPUBukOY0nPztBQWhoI8StQWoSSgLGBGwJwzjkH2wr1zKFoLkJ7++ROawcjsq6O+6Q+dACoqlPpiXbpPk3o16DLhQGSN7FPWg/sNtj86zz5MpTz2wW9e5MPEoQc/7aDfj6uvSbVKJcJIBjxXmP1oyIM7NzYlS3C1h1vPUnOmwuNYvXme7QtTUA90UpgpBtO3Y7INf4GZVK5pG0Sebyh07HePYsKYWBAQSAcdOSLO6SufpX+EtqP+YxIo6YM0SvtgPn02cyTNurk11W/YnHWEneiOu+6jP9Liqf+Q4TSwVydK2asdECjJobQ3U/hiD2ZN4CVK8GOKtoB0LBAuMiagpDBb0sxPD9GjNzXnFpjdZLSiEwBBWY1igoLDpLDoeAXZFhwv9vmeGKSxwcqD39Fq0lpBprgW+Of1Yq9xfY0AfVhb/iIgAizWvZ5O/4pMM4DsMDQNvQgmLID8Tfxna9Y7FvGZTAQw7ROmqoJvEO87xXxtyPUTCgG9PRQUBlzjhkOew+Hvy+k+bQDeCfsnM6GP8FlZIOWtpmQC+UFR4G38MMvge3iRmeKHT+6nCanbPGZjzfYUesfL9C0jHqSx2AE9JZzOeNjIu4K5cMB5FZ9Gf/t7cRTJuc9FR79+hb55bSI9svSwrtE7WYegLYaE0jD2B0PsULExQy9m/51rN/lnWBxtmBGtqsjiH+m7lGRbn48AzCSYHvDP6GfsUFN3GtIR8fiLz7D//e+J8Ra11swSmMDIz/jcIkSOI3DRVXT0W2ufMnyfCMqgceA4aOzwtYUNf4PWfHuYzpw+TBseU/cde3ktXSW/gCKYhYFpn0rN2sPqHKY/A8yGNloBDnp03LO3uHQ+TE/jhJk47qZmnPzQkYOoYOmgg4XSTX97Mo25ayCteHUyZXyeTk9rz1O8dxqz+GBYZsRzG2m4e44tF+UsnUhjPlPdKiC1p1lnIe4ppmbDvHxwscA/jw4TQ0MHsU4CszXbTZgA4YFOAG3EiqAw/A6BFbwSFsD9xysJSr0nxwAoULhU0PmbTZgLwLjEs8VbN+KZlWR8X0x9bSaqs3hBSQUgIALUK8BaupekG4FKBTWFMbmQ4bhpc+5owx+CnvzA+JP6taCkr3+ng6wXAfGAgMR7ZEGimE8QPRdmdkHPjx7abgJQJDbD+Qtf6Sz2oBD8EC/KNoMgv/fYg8d7hEEAeDH0d2J6p5dG0ts7PY2mRqs7afTKxRSve8ubGTBlFd5ShymzZm1uTTe/+Bn9cGyHOo0+dnAxc2/uLZS5dBEtYaast+8kjfIOaIuhHejBBxvxAAp8PHgEr9iYe6q6nEmsz2A4TYVfvUg3vKrtf8Rl6QNEg8F4TNw/PmOIzj+DaCD8rC3EI7er7Roa62rYWdZxPpmaX+ol6miweT/9on1iqHElDZ79oumcenB/IOcUKhqm14uPDqNDvRdR2g9/0PZ3xjK1y+5qSQHl7Sf+jpSuNYtZNyIQRFmbD3NVqwdUIiKZSOYXL1nyByKgg3fYTugVTEYnBCwfKH8xJhbEfcuV6nsy9D4szKCMse4zPlNJQSS1v//NMaaUWvHOcuPUKO2lSy4qWDeZBt6fxvNmQVZIuhd5p5jqCkWYwriufYfP8GwFuO6RLWAFZFtAeGBWGav94Hu+v4f6yk50EsghxHn4854YzHqN68Z3rVxWj/Rsxu8rAlNmLzSrX1c1P0qqkgD1c3KJqbGMEAnK8OXBj4DQOAgGb6oyTnHz4HXNmNlRQquZiYzeDAoH02QLoGeGIxTmHqQxSMxXtBMVsxZrqJD9ePE3TEar5Ggk+AryW89IFw0dL4bW+70a1PmZmr6fQId0ZlNw22ia+tVh2rNpoek8eUjK/qXwCho2djK1eugTWr/vS5r9QCQ5xEiHvSk0666rqTDnN36fSr+/OJ3mbxPeRwdd/+Iyat3qLCdnmHulHcERFP30QtrAVNAPbnV5mly7Z1GfW5d7gjS6EQ56gAgwuzTezgUfqz6FAT4h+HEbsUZS4M1flri0WU26xJNvQ4d/KR2owsQJMF8nPplKv+t4J7hrHG3cvZKm3uuhQYwEmdCrBS0uGkj3zvqIvv/pEN09ZRE9cvdNFK6+soWTX/qU22jFDw346JqnJ/5EHh1zlgpM/Fl4dzPqJ8w9f/zZgFDJH+89wSdM3ZBdrPsd1rC0DnjTD2oAAmYoglYgP/19xTsx4GYRnQ1XQMxEhgD4/urnacOPWZ7Okj21zH+PphsHJVIwU3jwwcGiEH40RH/h38Ozw4QHmK8QgUb45fpe0YArNCuAdGHG4l0xVlYFlCvODeoQv4lACgKQIFu798SAWDGxCeof/OpW2QIQCegIkMRv5VOvHywIUOGuDKSLlQeVRoCY1BLvnEUEqS87SREaF6kuAugV4SOBoxPBAfgz9EEPyGtcLDL2ofxw8+0kPIDhPnyGC/bA0aOhRxdy3QiRhgM/2seM/GDO4EEZ3+mKytbqjxT6YtbTtOo7HfkGhVB4r1jCPHlnTp2gQz9l0Z7dWfTzvh/p6VX/o1c3fUq9R46jqGvb8xcncRzJoeUTulH3mx+gDm1acr8nzDlxzXqk3zOP/qOJ1hot+tNNr/xEMW9lUtZ/9/Df4b919AQdP3aCkcsOWvNyLEVBBQFnj9PxL+Lp1r4vUZaWh2YHDEfC/YebQT89O2bd6MXIBxn+u389SUfsXZ4caHgv39aIk6oVQCJ4Vm+xC3yo7euUnPyVFzGHdBxC8e/s4Pf15IkT9MnugzTkrf2UumQWPXU3U0RNDbPWODNp/qieNDHlIFcbIALc0ZbqVobSjVSkEsHfO6+UdcCes4WHBSo5jzE2FKmaxeBtjVxyRUuuYGD5QH3BDYI6pje9UfeeZx01nr0gRbg4ihwxdO0rX9Me1olFOTQPJq7tHlZnHkmhC5rV5sd7hbUtIQTgIkKHO3W9OnsyrmsAIxQM68MxkQNoNrsKwHiNW11IMbGbtxMjPXCeCOSh40LbBHHrX3lpBpAmXEGYDd4qQo96h8CY2RA7PYQJ3KVtHd55bPbjxWJ2CIgAz+h8gGYmMHoS9GTwH6Ei3hfZhJs+xtA4GgmcqVB0LZgKe/D6ZvxBCfaHzwA+FvjhMFwG4Xtf01phCi5umnx0kN/4E6zhi1f8GSHScPD2fvg7xO/hBTB64N0JACT/lHffomGdOlHMv7dRKREaHEwhbcMpvGM4hV52MfvoncrgzEmnpEn9qH2rThSXlMUVBPxqcORbTZZar/Zs2r/4LSrQMUOdBiHkYL+B3+G/FRJMwfrpsFjDLcpdQ9/P6kq3xr5DW1nj9kY25RskIMwmmIw4F/2szkjIfeSmZqyhMdZjbDJ7y6uUZ91GOMQwvyb1PqXd1qKDP3s0in9cVI93Os88FEX9JqRSnsl9rV0vmGpapYawDiVt7mjq3qwbJX76G0+Qh9qBE33m4N+IcbYpMLv40/1a8JmMEWxzK2Q35pteK0i7DmvQmGLKE8jT39MLqG792jwAAaDzFO/eEBBD2vCGQnUyVwdNe+NdGr/4e3ph9ssUe4NDDd6UOCln6Xh+bROW5/G6DV823EFQiQCuA1kBIK/dvxbxz1CbyEtFihQsH7ugB4gMvj/cA7NOGEBGAF75AEEDNQvTHgQsfPRWQNI/jo13+lgFlhBtRl0Amdq5H4Jq1mD3XeUbqF0r0VAWlF8BsoqgB248kpgho18f0obZ/nXo4RW/moa7kfICOYwscjhqoQKFPEaPhpd8Qw3ib/7x0rM+G4E3mOHl4biRUJy4OSBUs3sk0nDwli/0Sl75hDq/FwIXUECoAMiFUyO+ebT8kZ50cX1WKeeq7/x1GRstcOY4FeRsY41zMg26tha1vKofjXktnQq0KBcIGONL7RQtGk/db1+hnU8PpClz1qq/ZcKVrpNO/lsb502hT54Np//MeopeXFlocexU2uaelCCbilllgkqAeQJzTYC/Y5k9FwSwwkPVV1kCmQfsnwPMaPjTnkzdQa9kmI8uxr1GY0Zn52imvhAbzytz7lBqr91X/M4Zs37hLDPrj+TRtk/m05RB3ag261AGTUiiX7Q8NHSoqEcgih0/r6bVWzzXKs4GLhrUOZ4czxqm1dvujNcKlYKRI/Bv//fnP3S+7ETasldUggso9ztVcSGJvGWDml6NXzj6P8vRErYj59Ae5z56+tF7qO2FmqoF8bHrG3N9C+o8aj6fnAIuCKSGIDdVBN9Qh3CdUJd4duK68BkmJVxHZjl8AnBtIOoL8jP6ZgWgYPFyMJHoD3/60h1O7tu2AyLfUKJ3v/szf75mgSUEieDiQtuyMo0FhPoDVrN2YyUayoILMB5OW/YbTw3tQvdHq+8+/eybAzTuzS/4MtQXhmXFffgbJcdcxFUVnKlmBAS1gVD7mOW/MqJszR/SOxmqDwzO43l3XchNEgzFgU8qAQPF+VZzIAEUiZ5PrsrnUr1e7Qt4lNjMMYvKm3h7G57rBRNFvIfhiVUY6O+pBCBFEAAA09vOgQyAtOF0xisGeUoFU71GoPLDfIHSRBpG3If5lkmdIH7MAgI7Etfvq8LBRzNjcCiPqGOGG33+lBXQO89i9wITAkBV6IF7hCFcGL2DvEX3+5AZHL2GUGSDXFquzUYDgExwv/DeYZifqmM+mmZ8PI2imxdS+vx+NOFdtdK/yp45XA7IX3v0/d9MK/OFTMm8cUcbSiiIoPZN6nFH+nV1N9Gdr/9WyokORTXnjgv5i7NWfnOMq6tfnGcsTTr4iNFAMVGAqHdWENf6W84+7qN+ZOWvfPJWvHxcjxadx9HX74+js85vad6zt9PunxtwC2g8uz59sjWGgEFFCZ8c0ple/3A/dY9gapSp2YzVi+iVVxMpfT/fzIG0r9f/2Zqfr4jOwoWAdf9h1yxmJlJ93xfwIWtoi+jQrWJVmL3lYXZ+qCd276iGaQ3TF26hWbe35ukvxrpiBFJdcG4ABjGY+VZxD2azOrb+uxOWL1bTo12bhvTRy7fx5fH/2kobd+oCZwGi3ApQjAtGJA8v2kZqxqIRbXmkB8EOs7aNRgeyQlIo1AJsfn0lhN8OIwvQoDAECxnrduSHCoTRIUhshQ8P/j8r8hPBGZh5ID8QLFQrVKOe/BDtgkIF0Iv6Ij+YHTC58Ub8q1jFs3rn8IOMnEF+cBrDgW1FfvCLwokPcxJ+HF/kB2JF5Qf5wdWQaDO8SAAqTUyhZQwQwTGPnh/3B69s1JMfkLcl1Yv8oEQSWePAs0UEzzMbThpNurUbdb5WJT88U6janT8VcZcD7rsZ+anDxkLpvZ2F9M3Ha2jXxlXU/uhmGjlbSyDXAT4sHBPmE5QPRvwgW8CK/KCMQH4gCfHuETvgWr/9JofXB5yXGfmBdKZdmUov3Xsdtbv2dkrLqsPzVKF89OQHRdTj0vpuNYXnhWm77oi6jfr3bkeNmJrtP8ab/Hgq2WAMFz3hJj/cbyP5QVBcxogHbQevkoTryIr8EFAC+SHwY0d+sH5wTLRlZDSgrfoiPxAzAkDI+USeoBn5iURnTM3lzzNA5z6xryfR6KxJ2w4E5fYBIgiChgpTEQ8FkxM8uOxX98uVjUBPjfe9Ymwf7Hj0bC9t8JAF/BHwyWQecPFXLVoRiQAqEAgMhIf9cWPRqMzIDzcRDwYRZ0SmQQCQ3+iJ9dNXocJhP5APfBzG6emN4DlbTHGgUiMyBvVjJveRA4VGj3N7mV2z2du+ALxOFAmjAExkVHxfwBu00BGABND5WPCqG+JtdQeYSjLmb4EcUPEVthIJ41bvfBYA+SO9CT26Ol7Y2jSB0oape3XbYJ7zKSa30AOEhiAaHPzIDICvDZ0LnrHZPUPnB2IFUUP5FTJTzuqZQUWC3BGgQAfk6z4BMNXh1wbgMjEjAKSjIOiHxoyUKtSff31+1Os1sLhPyGWFKwHDv/DqSagrzH1ZcPy/lL6ltLsAEVSkksFaETmcaGez/tnGi/yQioJ36CK/EFkVaANWE5Nwi4edL/IL4YO0AiwxvHEPeZN4bgDumS8gQIQOGROOmKWdqXVPVYfwk/qRTcVfltUqxDOCvUrTYM7oGjciWTDVMPcabjpUnZj5wgx4gxpUD3KTYP5AootkR0SBkeGPXhz74Xh2CamoQHDGwnGPHg2yG98xG1uIRgWFBHJFUATv1sDb56B89L4HkCSOiYRtXBManR1Ezhb8mCAtmIr6NAcBDNtDZUISMMwYqwkY0HtOiW7JzwOqD7mIvoDhgHAB4Hfj15ZOHjUCKhiEjVdMIlikdySjseM64DSH6vPld4Xie4OZMagHvsaE4/nC/IUJicZszMcTgHICcDw0dihBdC5mL3JHhwJVBdJH8APXZNVIRToG7i1e02g3gkgAvw9/LdQwyA/movHuQgDg+aIjaVhHneQWSk0/KbBISAZ5ImrKO35GFLBurPJZQepI4YK1IohEkN8X+0+6yQ+dPhTwooxCHnRA52rVCaEzgZJDsr0+28IM8PvhOeHdx7wT8tEWAASIctn14LjCZ6wH7j06KfgzMXegWa6fERA2vcIaMGvAk2hUpSNBTusU4EVNanM192DKAXdUygrqm/0b8rGrD/HxiAc5yQDwn/EoMFuHyBUy582IRAA3EAoGTmgkWOP7SI61GliNHgwVCu9QhQ8QlRq9pfGc0fjRSEEiIGc7MgegTLAP8sig/MwqHvIMMSgdpDLuxuaW5jTjaGZmteAkyJUnlJm6yRIglbuuCXGfr5WqFECCM9QVfgNkqe9gcH/QSKHKoNR9zRAMpfrakDZcAcNHapdDh84J42HRWOF4N75CUwDmKWbWhpIEaYBM0AkgumkEfh8NHonAGDaJpHcr8uOBB/asQNRo1L5eDA/we8B+H+dsRX6Iko/sHsLrLeoeGvcOppiNzxj1Ch0alByCS6LuWuWz8k6K/TYUPawVQJAfZq8W5Adgqrit+09xorKbKBXfh/Kqw6w2BD2scu0A+OhBYngG1zGTHR27nRgBYAXifcPY/3lWF43DGPEM4CNHW8VMT2bq3wgEH8cwXljElPXBk57jVbEC9Ny4H5nMhYz2pTpw0TBvkcYyiikWqDahvNC7onIiEfg51otjm13YHvvjQYJ40fhww0F+Vg8IJhKmXkKjwguc8V2MN4ZvTw/0NPC9QZIjYdUuJA/AnAH5YlpxKE/4P40AqSBFAeMkuW+EHdcKt7NKh5QAkCiGdtn1zgBm1H7kpubcjIMCspt+CEAFfLpvC7q4aS3PjNE6wIxDAu+FjVnvzBqIHeDHfIU1UJCELx8p7gFMSPT+GAOKqbPMgMoOXzLGAKM+vXRbK9r8wymvyLQAFBSOiboCQkV2hBhrawYkBeP4ID74FX0BHQWODx+oFfmJKPnrTKlCncLCwHM2JhJj6BimjIJ5jM4X/jxYOVbRf/w2XDMQALBW8LsgYUF++vHzCDwijxTbcW+tOiE8A0HmIB+79BWoeqjar/73Byc1kJ+vjhXuFzw7hARwzkafMQD/NwKLOEersfh6wMLDfUDHAaupTm1Pyt2p09ZulrIgMAWoI0Cr5Eo94EvAhaDBwVx5jZkz+oeP7HWMDUZWN6JB+jw0M6BiIh0FDtm+TFHa9U5QR7jpUDswV0F+H2QeK0V+8KGMZj0NgPcX+FKzcDgjd44dkp5nZGFFlvDxoOGHNmIkyRq21eB+ECnGicJvY7efABQnfJ9QjRg1Yzf9kAD8hOihQX7GsbhQ5yA1NFCYcnbqAONPoXSgDqBgfPlIcZ5wKcDnZOXzubBxLW6e4lhIeQKZ5B61NsHhpkBCLs4bysbOVYF7hYYMQoF56I/PCecMJYoggRn5sUfKyQ/kiMgz9sf9MN4LZAMgaIJ7ivqHABw6bqvZe/A8cSwAxwKfW5Ef/LSYBxP5eECSRSQV54r2BzJHSpMYYmoGnCN89HA5gLDQEduJEQDqXpzz3M+Pmk6winkwQaropO2SrQXQwUElQwyIccMiBxA4+Ydv9egPyu0D9AU0fkR1EVioX/sCfmP1EU0EQrpdXI+bJujpkexsB5gSwcw82PFTETeXQH5WJIz8Jqi6SazBo9IL8kPKhx6oYPChoKIgKRrpGXZAkACmF0wekJ+V8sI4yfYta/PIISqpcd45AfTO+H00MmPU0AxoVNgfwPRe/ryACueLUQu4F0ayhokOn+sTqb/xacLs1AF8XTDT4bdC5YQpZQfcf6gD5NlZjReFooefD6ocHQ/cFUhKxrx9ZkBiOo4HNwh8lnA9mB0XwLXB7AKQmG83ZEsAGQoIZoH84CM2OzL2wTkikwA+WBC80fxG3YdPDH4/+J4RGEG9FZFcMyCFC0EU1AP4ypGNMPuOC3m70JMf6gB8pViP4+onrTACrgeoX1hcViOiBEYza+n3UyXMImvJk559JTojkIjfRz3AtGlm80Ji/DrcWminmCOxdMK5N2DVQSWjQ0HHJvJy9QR4osi+jfiLcitAX8CFQ1ID6NH05IeK/xhTJVA7cAz7crjDlICJuIH1nnhJOCq+FfkhfQYv0YFZhH0QqFjDKp6R/AD05HCQ49wwsagd4POBOgH5gXytpsKC0kViNoDJXu0UJaayR0OFr0cfNTQD1A7UD0xPREjF2/LsAPUD/xCUpTrqwBsgCDwLzMZjZ5qgsoN40YibMZPOl1LFUKWHWIMC6SBFyYp8kCsnhkkhQouZRVBXzJoJgh7IS4T6R3I2CN3ONwXXClQtctj8eYsYpraC/wsqzWrsOIZtgSChZkHwXVkHjmCSkYRBjDC54fdDnfnx8BlbVwF+G8dGRwEXABQ58iA//va4F/mhrsIKQj5el7aYiMA7eV8PPHfk+/GAHiMpO/LBb8OnfFlz+Oh+t03QBxDNRccFAYEpzozDRwGow+f6q501CNVumBsA3ydcRujc4NbRWyoYfSNQpQSoT4OxAxQaopPoydA7GjPSH9ac4rhIY16VEejBMKQOkvz/WCNAJbEiP6gCZNojDwqm3Gv/bM1lv3EcMgA1gQYFhywekB14L8/IBxUdPj/j+xEEEDHDcRGpAqki6GMFNGgMAIePw3pSUxXcKc8qB8wD+FIX6hqFFfAMQIBoJGa9OfxnuH5se5OZL1ZAStCL7Ldxn7pdogYp7JSqiLjiXuFZmflHAXRUSGWCmYnzxLIYQmYEUligZNEw0MFgEL5dFBGjW9D5wiTz1bkC8KlCAUGhWaWHqKksLXiEswezBNBp4PqMJIz6CksBzwidBshfT2JGgFDRYYqOAhkSqMPwLxo7OZA6TFU+aQWrh1bRbKS7PHJjc056OF+rkR4A2uETN6tm7LKdvq0K/D7cIKjrIEqz1CBYfSAz1FtYKr7SqUSADvUR82waA1VCARadKaGosHr0r6EX8s/lQaUpQPQmCD6A/OD/0Cs/AKYvHjIakdFvYoTwDyFhEyYFlJdVxUegASSBabmRDAvfybIdTlPyQ28HPwoScUFoVr0oADMWEUnMVANZbuWn5EORGEkmf13Ikzz1s9oYgeuC6YkK5CsTHuY5GhJMH+wPV4L12aoAucKkQpTUjKzRQBB4QScBE8Yu6IIkYJAYFDAy+329khGNFL5fkBl8f1aAXzIx/TA/VzHTt5k5CzcB6gBUHBoe/Jh2DRrPFceE/8pXIj0AvyZM71VMhZrlrgH82TLlhSACMgUQWMEkpEZlCzWNYyHVBiNHQEDIUbQC3AqPMrLGtUMMgOSRWoZrhH9RDwzFA7mCgGDdWCkqdJKwbFBvUFesZl4GQDyoW1B0sAD0Y5bNgGPi+SKwCZIy5pEC2AftAHUACtiXpcJ25wE6dIgQA2bBHEGAxcUlPAA5x8JFUhYERIDOk56bWXSmdCVEZQJRIZHWjPygDhARhvkEM8ruTXLCPwSFgpuDCmfX6yO3CqMxMAwKhIUXrphFEdGQ4RvBbyOCbJfuAl8O/BxQgCA/s5QMATRo+HDwxi34caw4hVfg6JY8AdvOfyMQx3pnOPMRdMA9teEqDjR+mJ+4v2amH+4rSA0qFflgdmSCRgcHehhTU0hfsUt3ARANRCOFCWnmEBfAceGXQjQVDnKoHytzFhFqAM/NLIijBzoJ+IphIYAk7ExkAAEw5BAiMgufnhVAapiSDa0Vc+JNYh2x2XmgceKlW1Df8GfBsrAKvMD1gTQWdBToYEBaCNo9uvK3UjNW4/lj5hp0VNMYuVqRGtQ6JgJGO4PyNav/esR0h6+6DrcqrPyueqDtQsCA/DCztlnHiZQ2ECTqtz+za6MtwhJCcNJqaGIN9KwMdWsqPO0KLoDyIkAC9Pxw4YnSDwmVCTAjPwCyHIoKstwqYVMAvQL8bAiSwOSxa6ggXagZkMTTfVvyDHsznxp6OhFEwDlYmWcCyEJvx8wvmPF25AdfCxKycQ4w1e2IHaZW0/pBvIHaKU8AEWdEO1HhjYnLZkDDQ+4UlPJeC6UKhQGzB05xO4UG4oO/FUoeL59HxbMDTFNE3uEQ32AzggWmE8zH7IMuHiwCqVm5NJA7CnXYkKl7mHx2fiQoRSiPINbBoP758jnB3MLYbPiv7Pxz8D8jyRmEDd/eE6v0w/08gOUDFww6Szxf+N2sIDr3FGZy/vR7MXfVwMJAsrxxcgaY3jyYwx49rstoHuqBUR54bkg0N/PL6YH2ije7wUftj1WBa0eqGH4floVZ3UXQC/5M1H/s46sDwvNHnYVVZTfJL3y5wMmiYttnVRYENBkChr/teQsTtBMlfZJNM1bs4svoSWGeYKwmHpJZkicqCMgHN9vXm8RwU2AigqAwsYBdYjRIIpqZtDAPEVVGQxFJ1kZAzf3jorrcNPI1pT0ezj3dmvAe2ozMBdq3DKZZd7Sh0+wUJ687REeL/uT3qXZQTT5eujaT7/iM5avb1qNh/2hCKd8cp4Mnz7rXY1+xXLMGK6wRI33mxrAGjBwU+k/uH3xGO5gsfDv+sn3cy6wgMT2UNRaY35hJpWZNdRsIQRyzfu2afPox+JExckI9BvYRx8TswRfwnMC/MzDmHbOf//nnn4SJSE4xKwGpaPnHzpCLWT5iO14RUXz2Tz4+9Zq2dZhlo27L+N9Jz3b3vp7vgCSOs4ewg9WrwZ0b0v5DLkrZUej9HXbcC5h8nHxLC2rNntkbWw7RppwTfLuZqkS6CQKP8NUiqm/XuaIDXDC8LY/oQ31bRdIF0MZgnoMsYd2YBVRg/cwd2oYnW8M3ajUkVgBuKOQyQu1OWm1PluufuY4ua+egbd8V0L2vbtbWlg8BESDwzb+HUr06QTTrg0xa+PF3nPWR8wYWR3KqmVKDJH9nxEV8EkO8TcoOSILEjUQCJmaXsSM/mEXqzCV/soZfQm8wGV/85wWE9xeDTNx/WenN1MSQq0Modc8J+u7gGQquHcRKTdbz1uSJlu7PrDiaBVOXi+vTD4eL6RQjCrENvgj9flgGcUlInEtgNIQgVRDin0ylN6lbg6//+ffTnKSxHT77otMl/LOL9YpwW2EwAwIJf/55lt7/byGdKMJ6733w18XIHOv7XVGfRnRtxIfgIUBhZYXMubMNV9UIatlNsgDgVQDPMFWLNLKnmMCxsgAATNwwvE8HanHRxZS2/WeKm/+ltqV8CJgAN782iNo0q0/PJX1NZ48d4T4RmEdrsk5SXUaMdVmXCYJEwWcQxT3dmlGDukG0du8JRiIeMhEFKgmh7rps/TWMeKBE8gpLCC/TgToxkhmWQTzY/wK8ReUvAvTseBP/BZpBcpr1ijBBUcHPsvX4i+38L19G5wLCv4AOnShmjUG3n25fHAPpBXA/wK2Az3ZARYY69Gffy9m+UIw/M1MOf+GvwV8oSvdf/hwvYOqzFr9G+HLFfl77ur9bgwdUJKoPUA/cBKmRqiDOBrWJLg4JorwjLvr21z88JKrbh3+XkWqL+hfQvdeG0EHnaXrtMwyJLVa3s2Pie/qhblCJD1zXjHb/EULD+lxJKz/fT5Pf3a5tLR8CJsDMBUO58jn1h4s3vBKlBtXT5uuvSsAUQY+IG8h7Rva3RPuMiSlPsZv/m/OMez+xXf8ZroYejrqU9VsRa/wubbvCj6EWzzISVW+9qgH34+QdOe21Dcv8+NryLR0aUNeLg+mFjwvoJDOnxHr9/viL4BHMdMyr58v0BxDMgDmDSK5dL4qxswm3hXIfk9nEAnrAVYF0j8eY+vY15Tl6564X1aVH2XGtXnYjgOBEa2bWI43GbvgkfGhvMfNsAzP3MB2YHeAbwvyTSHXy5fNCgOS1wa35aB/khPKOlZWgIK2TxbJW7unehPowi2FD9in+oiB1PdtP63zFfgg6xPZoxt0Un2SfZOSt7qffh3+P/W0QXJOi2jfkEwn/dqyEWSysw+Adg/d+KPB5XtKsDh1lzx/uCu9jen8HggBC4a8CtAMQ4p/sbzCjqHzWZkMaBlPj+rUpK/co3Tltg7Zn+RAwAWa9NYzfdDvwi2BS+zS7kFo1FC6zT7hK+GeRSgOCgMLBZ8jyxkzJdG5Th9K/P87fEAfpjt6D/2Xk9YfucwmT/Q/0CKF3/4OZml18nRUQucLpwjz3BUQw4US2GzIE8ORlJvlnbT7iM2kUQJ4bpjAyGyepB2ZLvrVjQ7/ID05/BCn8yXODvwfOY+MwQDMggRVOel/DEhHpQ+QS7/m1mlVZDzjQ4Uu1CxAB8P02ZgRg9fpEI5DvZxfMEVg66mIeZTRLiNcDaTR4+xwi2WYpVHogYRk5fAg6+QLmwMO5Ii3GbqZmAHmM+9k1+RqZhN/HM3h27UH64fBpTorcjytIkqlpPVm+PBAdwO90rOhP9zqxHYqfL7Pv9AxrQBEX1eMvfvqd7cu3cXJXvyMsMfiu4atu27QOO99itx9b/evxa2O/YFanWjWqzWybC7i/HMcS+/nL3zm/OGnw5PXap/IhYAL88o0h1LxxXXoheTt9s+8IJzBeNHJD8WU2mQEPE45bq+hloICM9mcAdlmAFIfOber6DKSUFcjPQyTZl/IqKzAyw2rkSnmACL1VwClQIJ8TqttXBLGygEACcvB8Je+WBVC1iM7D/22XxlNWwJeG1Bx/OrayAJ0QXuaPulhRwEgmJH2bDQeEuvUiTta5C+LE34cGXEV9/3ERvZ2WTa+tVAOv5UW5FWDMjM9oe45/vbSEhIREoHhtzHU0INJBc1dn0dw1Wdra8iGgyAHscJCfhISExLlCA+2l6BWJgFisWSP9KxglJCQkKh8N63qmxK8oBESAzRtLApSQkDi3aFCvmijA5o3qaksSEhIS5wYNq40JLBWghITEOUa1IcDm0gcoISFxjtFA+gAlJCT+jkAEuDIGugRmAksFKCEhcQ5RGSkwgAyCSEhIVHtUhv8PkEEQCQmJao+G9Sre/wfIIIiEhES1R7UxgeUwOAkJiXONamMCywCIhITEuUa1IUCZAiMhIXGu0aC6+ABlBFhCQuJco/qYwFIBSkhInGNUmyBIpUWAu0bTsBHxNHtxMiWzsubzLNqz21A+X8u3zX56OEV31b4nISHxl0fDSpgJBijzjNAv33ct3d7zcu0TlW9G6K5jacGMh2lIZDiFBMCrriN5lPllCiUlTKakndpKCQmJvxzmT7iJoiIu5MtVOiN0RUWBo2fvoENfzaHYXtbk5zrp8i6G1ygEN3dQ5OB4WvDVCfrh43iK0NZLSEj8tVBtTOCQBnW0pXLgsY20eFwEhQRpnzW4DuRQ+tIEmjCoG9WuWYsaNW7oXerUova9h9KUt9Mp54j2JSAomBy3TKONG+K0FRISEn8lVJsgSP1yv/s3ipLHRlGI9glwHUin+fd3o0aXdKL+oybT/HWZ2pbSyNuSSglj+lHnVu1owgd5pH93XEivu2mGtiwhIfHXQbVJgym3FA0bThFh2jKDKyeJ7rqkH01415r0zJFH8+/qS4nbdBTIlKBKrBEUPWI4Dbsjihz8898XEQPYfRgxhKJ091xC4nxDZSnAMgdBdvzrDj4w+dipM3xYXJmDIFO30vHnIkl1+xVQ2v0X0aB3+YfA8E4Wnbk3XF12ptOkZv0oY/E++mIEqM9FOe8Opc73p6nbLeDoNYSi+0ZTj4gOFNFW06aMTIPZ910l7K8rjSZcO57sj1INEZlMP3w1nHcCvKO5arT9NYRF0eBboii6WwR1iLjUrdKDG7Dvn8RfF6VN6EYT1mkbLBFBsS8/TINv6EGXhgRTaCh70gVOys9Mo+VJiyhpS562XzmAc40MpeC2Pej/OrAzdeVRxtZdlLMtldL3a/uUEegswkNCqENPdt6sghZmp1HG3mxabmORSJwbfPfOcKpRQ50QsCKDIAQCLEvZ9+5I5cfFMUrckC787/VXtjHdz6r0ez9XcaN4lzLLZJ+ylNFp+drBFKVo6/Pq+qRsbQ3DiQxlsuE7KO1ufkpZlJ6t5Bdq+/nArsTSxzAt7fsqoxOWKZt34NhFSlGxdgCGosO5SkbqdGV0d5PvlbG0u/lOZWTMSF4GWh5vkeK5E0VKxmSTfdj5Tnxrs5L9i783YlbpY4jSfqQyPTVbKdRdsxmKcjOUReO7mh/DsoQp/SbOU9ZvzVXYbbWBxXWale4PKtOXqNeuf06lsG+Z0s/s+7Kck9K4XjDnGlHAPWb7BVLKZALXqxNENco5LWtEc53370AufaItBoSwmTS2F5MXHAWUnpSgLmblk1NdYjY7M4enassMjmHTaOXuw/TDppk8Ah2qOx07BPvar+tYSv76Fzr+7UZa8PRwiuqKYzP1qAv0uKPWXwcatY6gsQu20g9Hi9n5r+Q5kTxn8utiOv7jRpoxQNvNjWzKd9+IYIqInqYtM4QNp6kfZtEhdr4zHoiicKF8fcHiRjiGzaHtXydT/OBw7+BWCVPRR/IoZ28eOTVvRbAjkmJn76CfP59J0eoqG2jXfGwfbZgxlqJvcPhImWKKs1OUtmwOUQfOfL2Q4keo165/TqUQein10hYlzj0q43WYAmUiwPoVYIeH6wjQmZdB6dpymdE1njZ8HkcRvDHA1B1NblN6r9NDgGgQ4WgQrCF9uI/2vBdPgzt6N2Inos8fJFHChBiKGaWWCa8kUdqXrNHy1JsCyt3KdzWBetzjX8+hYV2ZSSYaEmv4zrwcytySSkmvjKeYCQmU9EkmFXASUKPWX+xe6AcBqHA8lEx7ju6g2Q9EksOEg4IdURS34hda86Te65lJxzw3goJDw4nfiXEr6YfdJmTlLKAccb7afVDPexvlaccpYM/MCMeTG+mLxWMpQndezpx0Snp2IHWv05AatWpHna9uRy3r16L29yRSep7KhKE3xNGKb63vQfSMjfTDKe2amRnO4XJSQY56X5cvTVELOz89wYY0t+hawlgnhc7PUAdUgt5GaeJ4S5kZvTOHcg441dSrBiEkulmJc4/KSoHhMJOFVqV9m6Zcgv6waKTyxO3XBGQCL9JZp7lLwkz3sS9dlfFvZSi5bjOoSMl9/1Glndc+etNPUQq3LlJS9xnspuJCJTttnm9zlJl1EyeONBxfbHtKWf+L93ELs9cr80b3Nd8fpf2jXueS/9GD5vvpysA3dylGA7Xol2wlOwuFmYR6860oW1nUz/PdRVnaeqCQmZ7v57I75g1+zvf5MknDlJETn1JGtjesH8jute6AhVnLlPE+Tfyuyrxdni/lpvQttX1yWr7XeRblbra/r1qBa2PWiyNLr797nrJLfxPx/Jc8b+M+EKWrMvrNWcpE022ynIvSrV1opZnAZSLAay5vxU9g59y7lJfu7XEOCTBM6Td6upKSbvAvFeUq6yebNdynlM02Li3/GqmPwshvs8f9yFCoZCRaEKWxtJ+luNt/8S5lnpFU3CVMGW8gLBDBrLsN963780qG7noLP33UvW1iut2NyFZSyuyL0xd2Dw5rx2Jnmb3Ez+vHdX2qu3lefsUw73Muzvf/vloVA0kX7VtV/ucvyzkrN199UaURYNlMYM2+O/7HGWoaUEJ0HDl0toQjchoNM6ZnILo3YjiNfXkhrdy0g/b8dJiOn95HGxbE0zCMGsEplDgpZ3UCxTCzatBLZhE6b9PPAxflfTCeul8dQ/PLNXTOQXELnqEo97U4KX1SN7rxiRTyK765fyLN31KgLgdFUI+x6qIR0e98RDPucDCDGWDnvno83Xh5P5q03PArOxMoNVN3wUEeJ1nmEdMbQa79qTTh2k4UMzfwCGfsmscpqrn2wZVHmTuIIpF+NCLa27+pPdNh46bRghUbac+vWTS7j6ciOJ352hK7s6+/T1N7CfPURdte6en/fTVFLK1ZEEvh4pbkpdJdVwwt5/OXOJeojNdhCpSJAIUtDgJs0rACRoSEDafk74sZwRXTmbNa+X4jreQTHsTS4F4RXg5q54FMSps7kfpf1YI63z6ZllumO6RToS49UMC5ZTL1u2t+ORqThnvnUJy7keK402nMa2U7alJ6tttPGRoeqy15AL/a4nvD3eSHdJ72t89n1O4bIaEdtCV2J06a3Igj6TTlVkYCAaaLqIinWHcAiiE4nIbNVoMyyYvX0nbxPHXPNHk2+84dURQe6iFoIG9vqrbEjtonQrtmhrw0mjKlnE9r3HDq4T5NRqhLh55/6Ux/c1RWDiAQMAEG1SzTVzU0obp6p7sGqwicC075L9Mo6ZXR1P+KWtTykm40aEKiX3leOQUG5VOQRpN6J5af/BjiRvbwOMVLMillTADH1Y1rdhYkaUsaBiyktVPFaBl/chljqVe4LgKhhz4izlFAaZP6UWK5yI/h9X9SpAhMlAPOnfNpygRx95iF0FZbZLAPkjko6g6ozbE0dQFIdw7FM5U5uJch9b1La92oozzKnqItmoHPSMSO+fQcTuQLXh5bWs1KnHNU1kwwQJkSoe/p3Z6eH9GV0rb/TBc2r0+dL2tWxkTohbTnLDNHtE8Y+yuii84DuyjvSMUln0atYGYzMx8F8j7oR+3vCjjmrEMUrfxxIw3WDu3alkCNrp+sfigLHttIh15XSS7n3VqM4NTVOP6C3WsptqOqg5xbJlJ3H8TtmLqV9riTyxkY2cdcOJCWY7nPSvphwxDPiBhmAva/fGjg0XcNU786QfGR3koOke+CnAzalsmIZkc6ZVMHiurmIP0UusFtO7BzyaWcAwWU/f4iSjA85xlfn6C4rtpxj2RSUuIsSj/goB59O1CT4FAK78i+z6yCkAaG39bBBeXYf6BK8iNW0s+Lh2gdlovyPkmkxJRsog5R1KNtMDV2dKEO4Y5SKUteKHFS5r9jqPsEqR2rAuOHdKaHB3bkXJM8qU/VJUKPG3g1d0JOj71O+WjagACCIN7R2ewks30qqLzlFQdWNk802Seg4h1g8TtB2lhezNCCG97n1i5xlyfokb9eGa3/jlkxOPg5CjfropaGiHj6U97fD6iMVNZ7BYAqMLBgdj0BIP8jEQk2BFUCRfEu5T7jucpyTsqzw7txrsFyFQdBVCl6gpnANQMygc8hsg2mn2EqrcDRgVq7bao8ypmvLZYRcTcI/14B5a3mCwyxNHuY8IExU/XZgWQwjr0xYCZ98Y7OwW8KfTJ0RSGUgvW/eXIbJcKnWBGBhXWjqfNdibRNixEZ4TrppLy9ObTtE5Gzl0Krt+Ro+ZpmyKPE3t1owgc5paZT43C5eB5ozs50Wu3OA0yjTDVhU6IaoG5tVZqXcwyGKcroA1RPhPsAa1RzAlxXYPB9VRR0hOLMpV2B+NLC5tDwGzQWzUynBO0YjtkPU7TmXHR9OY/sxkg7hiXTnhVxFCmisPrG3aCJLnE3lQ7qpw6rBDh3rqIp5fUp6rFuIt14YTvqPyaBkj5Io7QP5tOUUQOpO58irQW1v7oT3XirJ2l9aO9OlLJX+y5QkkNpb6ZoHwBMnNGJGl0/kKbMTaG0T+BXHs++145q129ILS/pRJ2v7UdDRfI3fuvZdNYFeeD8chkt0ZYlzi2Ca9fUliqeActGgJoCPP5HMQXVrAQ6rkjsd5GnDw+hJhdpi+VGAUSDCi+i8RfRtGBNLEXwvsRJ6UvGa/49B4+Aqiig9Le0YX2lEEFjF2fR9veGe5SfK49WT0ihHO2jZ1YcII+KdGImJKS1tlRxCAmPYtq1rHBQ1JPJtP2nE3TmVBYt6KOtdiOP0t+eTGPuGkiD7hpPCVBl2hYjIp7bSMPdkQoX5SydSGM+0z7qsTONj/YZdOtAGvPsfKYcLTyryE54KsrzbI+wTmpMovZB4lwjWChA/m/FomwmsIgCnwo0Cnwu4W36hbJKXTFIoUxtKBcFhVOP59RFv9B1LK38fiXFaszF02fe4IsMD1MXkRPpzKYtS7VlHSLGacPhRoR7CK6AmZ93taOh/7Y22XL0uYCh4TRMWwwcibRlr+73QqMp/kN11hlfcPSKpakf7qCf+dje4RTRlt2Lk/mUU+YwOuDgncFGXcS8YN1kGuhj9h9bDJhJGzYtpGGid3Fm0vz7KyBqLhEw6tbRFGCVm8BuBQgCrOYK0GD6hTrsB8iXBVPSMjV1GUyRj26lGcPsmj5TOg9Mo5WYKOGrOTQ4TCO/zPk0Sh/dfSyCHGZRyLAoiluwkfYcLKbtszFdk7YejX1LIg26sCdN8jE9VeoBPQFeyscDlxcJSd4momPwQvri84UUZ0xDwfXfEU+zP95KPxw8QT8wcokfHEGh7rG9OZQUAME4hjGi+jFL1xkgUjuabhwUaKqTqqwPfRhHUSBlBtcBRJP9mf5LojJR/RRgwHmA5xLeph9jQLIYcFF2vDSZUoQCah5Jce/to+PHDtPP33reYIfGfvwYM+/OqqNYBrsnSkAqxmTq9w+b+QVDomjGKe3732uztQhfH3Akh5ZP6EkX955ocYxQcozTFhny3DY74L0tYLzLzMh3c7SOAAim0BtiacamfcykVc/dff0rptHYWyLJ0VxTVRp4uspNnWhMWQgGL9L6HJNaMKJy6FTaPd2o+yOBjBhx0LCpKz3KWveMbrxkICXIESNVDo8PsOIRoAKED7C8BOik/ApK5bGCl+kXXDcAf50V0mnM7RNp9X5d88eMIeHhFN5RLWjswYZcNWdOGiXe04na35pQ2p+1N48K9IGM4NLfdx3IpNUvxVD7Vn4MYdOrSa+IeDDVbaEtlhNp999Go9/Y5n3egHbuxvMXwHUsn9SPOl/uL8HAX7iQNnyLKazmUOwN2vBADIlcOp66N2MqzTg80Be6ekzx5OeGuJW1Ky/d+hlJVAmqURRYJUCeBqPNzlouWKYuVAwS03UKpaKnNNo/n4Ze0Yn6T0qi9L0F7qmYvIAUi7xM/qKnMb3bUcurBpYexyvw2WgaOGG+Og1TDjveSXXaJ56eMXcyDbq2FjW6pBsNnRKAynkjnXJOasuMOkJ0oy3Khzxa/gRTolfFUMJSvKjK7CYwYGow7YVXuA+4jpjX0v27jsg59MVR+AtjKUqwFIjvk/k05voW1HmUf8MD9Yj9kKlUzAWoM8VdBYKUTcZaS1QpKjMKXKaRILsWDOVs3Hn0Cto+9w5+YuV6L3Clg5m9M6ZRREkGpWdk/LWnNg9Lph++F4EIJ6U/0YL6uwMs7E48NJOmdXFRxtYMyrCJqFYE8IqBSO5Hc9HBckxRLxC75hdaMCCUXMz0z1i9iF551b/hkJYIm0nbd8dRRBDrZDLTKWn+dJpS5nfSSJwrfD5rMLVqUo86PrCc9r49rEJHgvhNgJgJ+rtFw+lPRaEr70vhJwIzuHoT4N8IuqF1ZgR4fiOConqxa6qId4locPRi92pLujRzzwN8zcQW3j/U6cHllPVWxRKg3yZw7VrqrmeK/+R/q38QROKvg8wKJT8gT5LfeYO61SEIUqeWehKni89STV0KzNmzZXqpnISEhITfwJvgajPuAe9UaRoMTgI4w05EPwyu5E9JgNUPTjqmHxomIXGeQgRA8BreyggDl10BlhgVoGoSS1QnuKjQbCiYhMR5BpECAwKsUgVYR+cD9FKA0gSWkJCoJHgU4Gn+t6LhNwHWDrLwAf4pFaCEhETlQAyD4wqwEiRgmU3gUj5AqQCrH5z5nplhJCTOY4gI8LGTZ/jfikaZCVAqwPMATqdM8ZD4S0AowJOuYrqgEryA/pvAmg/wNHyAuhxAqQCrIZx55X7nh4REdYDwARaXMKFVLUxgRIF144ClAqwecHS51D1HYN5++fIeib8GRBSYE2AloAwK0GMCSwVY3dCASl4cSFd36szKldR7tNR/En8NBGuToRafreJEaE8Q5E+DApQEWPU4SQf2Z1P2dyj76Jdj2moJifMc1ccE1qXB6GeDLpGJ0BISEpUEEQQBAVaLIAjSYGrq0mDkWGAJCYnKgkiDqXIfoH4onJcClEEQCQmJSoJbATJLs0oToT2TIcAHKBWghIRE5cPLB1gJKLsC1PkAEQDBBKkSEhISlQF9GkwlCMCyEKC6q+oDVE8FyxISEhKVBbcCRLC1OpjA6lA49WtYlpCQkKgsVJsosMcE9uQBnqkku1xCQkICqCsSoavaByimw9IPhZMmsISERGVCHwWuUhNY+AC5CaxFgaUClJCQqEwIHyB4pxL4r+wmME+D0aLA0gcoISFRmRBR4KLTJfxvRcN/E1gfBJEmsISExDmA8AEWnSmhC6rypUi1gtRd4YwUM0JLE1hCQqIyIXyArtOVI7b8JkAxBRYmPxAmsFSAEhISlQm3CQwFyJcqFmUgQPXnOQFqJvBpqQCrJ7pGU3RXbVlC4jyG2wSGAqwEBvSbAGtpChDhaOkDrK5wUNyaX+j412tpxlhtlYTEeQpYnSgYcov0uypWgMIEVtwjQSQBVjOEPUOxA0IpWPsoIXE+Q6g/FzN/VVQ8BZaBANUflyZwNcbIDkwDGjBgJq359jAd+mkHJT9UaquERLWFJwVGFVpVOh2WVxBEmsDVE21DSqm/sY/GUnR4CIW0jaBhjz6jrZWQqP4QEWAEQCoLARGgTIOpnhjbNlRb8iBYrUOVg7Aoint6LEVoHwOHg6LuGC4DNxJecJvAlZQEDZSZAItL4AOUCrA6wkN2TsrPUpfyT7rUhQpHNC1Ys5ZmvDyTFs7QVgUEB8Vt2kEbViTTmg0bKU5bKyHhSYGpFiaw+uteJnAgCrDrWJo921s1OHrF0ewVG2n77n106NgJOq6VM6eL3cvHD+6jPbu30poF0yi2l/Rl+YvlR5zaUgUjbDhFhcPgDqbwG6ap6wTgd/w6iz0vRmz/GlvaL+mFIXRLhPZG45BLqUuYuighIcYBVwsTWKTBgABraAT4ZwCvxJyxYA6NHTeHvvh2IUWzhrLhxxP0w6aZNPaOKIro6KCQBsEUrBViHYBYDm7uoPCOkRT9QDwt2LSPzjBC/GJxHEXJBuNGSPA5jP/u30W5GrcGOyJomLrIERcXy8zZcPa8IijqoYcpXlvvGyHUaoC2KPG3R906mgIUQZCqjQJ7CFDMBnM2gBciFTjVVhMcHktr1jACc5RutC5mtvFyJI9y9uZ4lzwnuWDVMUKMHMEIlKnGNc+V3wv1V0BoiLiXTjq4TlusNCRSXoG22Lw1ddEWgcRJs2h1DntO7Bk6MzNoubbeN0KodSdtUeJvD/cwOKEAq9YEFgSouE3ginkpuosKdqZR0ivjaWjvdlS7Zi1q1LihWlq1o85Xd/Iul7egRvW7UeJOzbcV7KDo59+i2VIJ6uCiov3aYiUip0CTgEGhFD5CXeTYmUBDr2LPiT3Dlv8YTenaagmJskC8ElPMBFMJ/OcfAYLw4IAUL0EqDwEmumUDgyuHkgY1pIuvHUhjnp1Pq7fkaRt8IIyZy3rlGMSUw9/eLeiguu4gyLlGMAWXDkAHhOAGUdqSxN8dbhNYC4JUBvwiQL35C5THB6hH3rrxNKaMplrEuGTa8/VMimqurWBwZabSxM+0D39bDKFW4p448ylHW/RCULCPgETZkHpABFhYB9RBWywnQppLd4aEChEEESZwlUWBjQRYLhNYF9BxnfTfOIq4dw4f0bB99nAK14KGQMGXiXTXPyaSn9rx743moYwmKw55JZ4UG6ncJCoapSdDrXgG9IsAa7lTYFTCKxcBZueT0A2+G00Exb68krb/dIK2vzOWj2hw40gOLZ/QjS6+aSKlaavKDgdFPTmHVm7aQXt2Z9HPB3/hf7/4eA7FD6hYJeLoNYSGjRhOw+6IqlAV5kGTCjOBHb1iaeqCtfQF7slRLQXp85U0dZj1mZdSbv/aoaUw7aM147R11QZRtOC/h9m5HaYf1sQx/SpRHWE0gStBAPqpALXJUCtEAeoQ2tacACMGINUliw6d3kELnh5CEW09/j7XgUxaPqkftW/ViWLmZmpry4oIGrtgK/3AGueGGWNpcK8ICu8YTqFMIeFv5C1jaeqaHXTmYBatnDo8QMJy0LCpK+mLH1lDO11MP2xaScmLkyl5xUb64WwxHf9xLcVVaOAmlEIaaItHCihVWywLIsYtZOeLtKSFFP9ANEXinoRoKUg3DKH497JozzvR2t7eCA5uoi1pCNbSlxo46NLqFtm9N46iI0LYuYWQo2MPSYDVFO48QKEAK4EBy2QC8zczMdTQ0mD+DCANRo/grtFq9DYsigaPm0bJjPR+PlpM29cg2TmcQoSiOZJH21Yn0Jhra1GjS7pRzGvpgZu8XeNpzY9bafYDkeQQhKHB5SzgqTYFTs20ax5Og59Lpj3fr6SxZSAr7qc8uo+SnxtCkQ7W0EyUWbAjmqaumFlGcsWQMUbOCxiRMjJduUIj1dnxjMR1QSFmmpbl/jiGqfmY22fHsvMtnZbkQTCF3zuHkvtoH/VqPsQmClJGZepWy/riVuTsHrAOK3A4aPaj0ay7UJG3bb50n1RTCAXomQ2mElCrRpDiq1zaKkT5cXGM8vnr/+SfXx/dk3++s2e7Uvv6LI9vVgoVP1CYr+xKm6dMvDnM/DiBlIGLlOwi7fgain7ZpaQmPKj0a2/Yt/ujSkqW7kwPb1YmGvcxlvYjlXk7zK+u6ESRWrx+P1dJ6WdyHEPpdt90JXVHvlJUrH3NF7IXeb6flK2tZChk16A7bq0atymz0nMVwy1RlOIipTA3W9mVvkpJSctQsn/x3iP3/b7q9/XPUv+bKLrfzV2CZzhSWbQ1W8nOMpZcpdCf6+LHD1NGLslm51uo7HrzNu/f87f0W8buukC2ssjXM5WlysrcR27iPDMo8nL++eLmjfjnuCFdSu0baPFTAaras6SkAnyAdihxUs6WJJoyqBvVbnYRdb91PCX6mxrjC2FxtOGdWOKjtxhceemUeE87riiHPptE6ca8uZ3zKebqbjThEy1tp3kUTX3HZkwDjv95Mo3tqjOoXAWUuXQyDYJyFbmN9dtRzNIcUjWmgyLu5Avm6DqWkncfpu3sdwd3DQ1oYgNHkIWiGzCTvviVmeG9HJ4ZZJw5lDZ3NHWv05BaXt6JuvceSjG39qTOlzSkQe+Kc7aI1IY6LMfxhrRF6CWUmZsYHWIsDo/St4GzIJto8EyaNiKcnW8IV9kbAkiAj39+iEd1Z6ZTwjnIl5QIDKVmg6mqlyJVaBTYDKzhrX4FDa8Fde49mhLWBerbs0IULfhwmjt1xrllMt14eT+atNwXueZRRp4w8tgDCevhNeTLDZDfVzMpym0FuqhgSyIjUEbioxIobae2miOPlo9KpcyT6qdQ9l0zRM/YSj9/NYeGddQRKjNtkTQ+/9mh1P+KWjxpvHbNdtR/Uirl6a0E3fKQtqU9XI5hzERfEUeR4nzR8SwdT92bdaJBE5LI7O6n3b+IMjy3ovJQsI2Wf5BOmcYRQPtZR7R6IqVsc9MwRU39lDY8WQYnQtgcGhLp6RAyt4yX5m81hscEruogSCXlAerhyt9l2vAqAo7XZ9LwjqLiO2lXeh6Fc9/SEMNY4giK5uvjafbitTyAsf2hcG0bg7PAZFgXZkXxkCuOv+21oXRx74m03FJdFFKRRlIhoaUT6KLfyaIVT0ZSqFBGIKjVCRRzlZo0PuGVVJ1izaN09nt6Bes8wtSSFQYspLXvDHcrYRBO4qhu1HnUfNv773gymrpoXOo6qUtm9xup9MqYGIoZVbokbtMxqzObYu7qR90NI4BuHJPCNubRlCkplOPOvgEJfkQL/Bw/HDU1miLEPT25jVKf0JYlqiVKBUEqAX4RoP59IECFK8CQcBo2ewcd/3ErLRhXHge3GaJo2oAIj5nHG40aREhevJI2fF9MZ86KsoPW8PXTaOyIaB7A0KMgL0NbEsBUTskU62YTJ6VP6kY3TvKRmNOnB10qDh3MzkdbBBxPbqTF98LMU+E6wEz125kyvn2yDaH6i0spVu8G2J9KE27q6VsJM5W64KkoLVrqpOx0kBHDugJ3EIQaNHEHFoxQSZ4R9QcptHxp6TIppwyE+tlomuB2ITAEh7Nr2uhHRD2WHtPNIuTcuYoStGWJ6gn9G+GAKkyEVn+5QvIADXDm5ZBTI/hgRyTFMiI89O1ammGTc1YmjIijXhWQbuLKS6NEZh564d45FNdLMJmLct6Nof6v+TaqomK7ePxQISGeqcHCZtLKqYJo2BFzUmh0b2aqV9TEBiEOChdK9Ug6Tbl1KM33SaoOmso6BLfCLcig5W9oy/tdHiIKgmfu3CB9DDOFPTJQ9c+yc7StMc/dp3NRFFDGkkRtWaK6wuuNcJWEgEzg8swGY0TBlk7Usk43mvD2NsrT6nRIeDTFvZdFP3+NoIK6LlBE3dbBVJk487ZRGlMf85+FGTaZ5htUyfJPtlHOl2lsOYkSxvSjzpcPpEQvsohiqsiTTgG/4sD7/UnJjqOnbzFvqnELYilCSD8Q1KCYcqs+0wlRMQb7/n6G6zGDOllpvNtvxhRu4ngydANVgDQaM0FvCrPOMzKOmfbmOYq4jtlDIj1WQMEuSnlXW5aotjDOBlNl02EJ6akoquKreB9gJs0f05PaX83UDjNvVEUYTKFdh9Psrw7Tng+n0bAAVdwtYQayObKNR39bXt6TBo2KoQmvgPASaILBL8WjnzcNZMujacrbJnmHTFlGC/fgyW3s/BP9cqhHr3iYokyl0jQa4o4gu2jbv0f7QVC+UXpCVKZUl/ozBhuv2NxKU90KFyQ/ncb4oXBLwSZCXAr+jldmpvDAf2d6FCirL+H3JtOGx7SPevSZRtE6z0relsQyTNElUVUwmsBVlghtRKWlwexPp8RRTBFeP56W79UablAIhQ+Op+Td+2jDbKaQ1LV+wz1FHkcerb7fD5+XHxh2ZxdPMu26yTTFH7IasJJm32HRvMdFUrhIzC5Ip6QpZTlH75lgzAIrbrBjJ47xMQY7bDjN+GoHzdC9YtOZOZ9G9faP5MuFMoxXznviTkp0R4WBEIqKL+0PjI3TDz/MofQpcoKu8wFGE7gS+K8KCFDXUC3Bc/Ba0CCM+BD1O9hBUeMW0vajWZQcaKBkfwZNrCB/WpTDTX+UmeRHg0Le3TsiB81F2rywrM22Ji4kO7X2+NCcBf6bmSCrz7f6rZChfuyOjVEhX3yeTHGROuUH8vvHeJMx105yaZ0zFFjdCvC1lg15NGXUZErXi1z4A71G2MRT7A06J4jM/TsvAI6B6w3T7wnXW2Xg3BOgu8H4RhrG/F4dQ4lf6qKE7ojxxrIHShwdAhp/K2aiOXP6sGZijSU3/zEyK/Q1FRcnvziK1OUhJuw0mKb+dAxe0MYz72ZkpW/ggKUZWUDZaRZkDSLdtI/2vKfLD2TXlvfBeOpuSn5APhVq+YxQX1Uynf3+RBqTkO6JRjMER4x1+wMds/9JkbohjzL37/xALff8AzqOqS4mcGXkAVpifwpNuuki6j4h1aMGGYIdUTxQgveJ2Kmf5Zm66h4UQbHvzfTPjO4aTfELNtKeg8XknommpIDyuHrwVj5NxNhYE0TP2Eg/I+lYIz9XThI3JRMPGFI/sjzjaqltB5qqLRqBF0iJiSL4eGZho/L3BGiwNCOdVLBUWxToGktTP9xBP4NIDaNClj/SidrfVQFjZYXKrSTkvdaPEj7zokAKZ0p2wYBomqmf1Ufm/p03qB2kmr9ndervr2ECB4jMuUO5GpzvpZyY0mGEkLz7F9q+2Pz9tOlTUilTT5xd42jj7pU09d7Se0cMGEtTFzPS+4mpva/X0tQHojxpI4z80qfcpgUPUqjgCF/L4KBb/mWcLAHTbC2kDUw1rnkyikI1VnHtTaHRg0araspNeBqBvpFCGYITG0TSWEZI8WIigHHTaMEKnJf6AimviSKg0phZO+jZDA+BBtX1mNO6CQug0kLHqceMn60mep/5eiHFD45wn6M4Xsy1nSjm3+ePVkrsb4iYB4fT8AULSR9wl7l/5w/cCtCLYyqeAgMkQPVrAaXBvJHHDLEAwdTghGsNvkEgOJQiRswx9w/un0hDp3ibSCEdh1D8OzvozCntlZt4BedZzEIzh5EOIz3j8DFnJs0f1dMrx2/5Xs9ycNgQmv3tCTr0YxYnz+OnMc1WLEWJ+Qu1oWY3MgJ3N9K9Tu2cQqhxR/xNokFjktypHSEdhzMy1hK2Z8dT7B04LzdLqYBKm9CT2vc2zInYgBGdtujtcgil6NnqMaeOK53o7WQEPeHahvx45U+6PtdIo5gnPPcPCA71BHFg/svcv/MHtTUC9FKA1cUEFi9GP6u3z/1GCmWWs3Fx3+BNukixAPcPbi01Zx1MpH4GE5rDPWedgVgEjmiTAzTrRhMMkeP0e+6kKZ/kMb2kAYnAjnBOnu5JC7TJHSZc36L0UDNmsqnf1U0nv240Dbyf7We4rFLAeb0RQ+2b6eZEdBMqEEoOMQnpEV2ysgWce1MpAalBXGFrK8sMvMVPWywrvFRqOYD7Z+js3JC5f+cVamkmsJcPsBIQEAGWzweYTjH3jFcTj99OoOmB2iTabC0xbxjUIPw/A+JorPZJgJvQ9RmRzU2jzAN6H54OJeqrOLd9Ml+dkaaV9eQAyF1MuLUdNeJjc5O8k6jZdU24i5G0NrmDOansolx24nh1ZHDzWG0dI+vlmJSgG415JZW25RSQU/eK0MwtKZRwv3ZeT6R4++Y+m0+pwj1wZBd9MlddpKWTKWFuKqXvxKQCeerxMO9hDvvMyHlSbxDfUJpSztQg585U+rfev5iaTul4hSn7rcyl8+xNT6boc9zBlPIBnd0o3cw1AjL37/yCUID6CHAlCEC6AHNiacuW+Ef7FvRefF/67w+H6Z6ET2ndy7dSWJvGNODZj2n/b8e0vaoQYVEU92isNljfSbuSZvk3jVbXaBqmmanHclIMs7ZInEs4HmKm+dguRDmLaMpdieV8laaDZu/eR2O5awHIoaQrOtGY886s//uiw8VNKHVqNP165BT1fmoNX+cIbUifJNxGc1dn0dw1WXxdeeGXAiwuUVlYOCarIghiCyRQTxCjOMowh+BODHVTVZskv6pF3r9j6EbM+lJu8gMeph76sLPM/TvvYK4AK14Dlo0AtTHB1Y4AJST0eD3KM+0Vg8z9O/9QrXyAYhosoQDPaR6ghESZwMxf/TtDZO7feQl3FFiXaVJlUeDSJnDpk5OQqBYIe5x6uH1/CM7I3L/zEZ6RIJXLMQESoDSBJaonHI/20Jm/MvfvfEXtWtXRBJY+QIlqDQfF99GZvzL377yFEFveJnDF2sCYbCEgBSh9gBLVEmHPeEV/Ze7f+QtPFLhyOObWay+h5c/2lSawxF8HjvgeukkX5Lx/5zPMfIAVof+uCWtBc8b1pNcfup46XtpMmsASfxUw8zdSJ/9k7t95DfdsMHqOKQcDhjatR/HDr6FlTPX1+8dF2loZBJH4q8Bg/srcv/MbFaUA6wcH0ehbr6QVz/WjUf302fFEvx055R8BineBCCdkDS0N5k+ZBiNRXTC2i8f8lbl/5z3MfYBlo8C7b25HK5/vT4/fEUGtmtTT1qrIO3icbn5qjX8EaIRUgBLVDe3ff4b+75b/46Vf7xEy9+88hxgJEsh0WAN7OLjimzyyG13epjFfB646/scZ+v4XJ3/L3ENvfM7XSwKU+Evgh22f0mefqmXLzp+0tRLnK9wKsAwcExVxIb3zRBTNHH0dXX25OpOx8+RpStm8j347eor/bVivFk1bspPyCk7w7QERICDJT0JCorJQFh/gTZ3b0PwJN/FyfcfWfN2BwydpTuoeuu+1dOoe3ore3ZBDLUPqUuaPR2jVl//j+wABE6DMAZSQkKgsuMcC632ABgbsdkVLTnoL4npx9Qdk/1xI05f9l4ZMSaN5a/fyyG965gE6WPgHJ8Lnk7bz/QSkApSQkKh2cM8GYxFonTf+RlrydB838W3adYCeXPAfTnzJn35PJ4qKaWivMG7yLmOm77R7r6XH539Jp1zFfH8BSYASEhLVDmZRYDEf4IXN69PNXdryZZjI67blUSoza/FXoHnjYJowpDM9Nu9LeuWBSFrCSHH3/45qWz0oBwHKFBgJCYnKgfAB6qPAwgTGLNEgNADjeQdEOmjuozfSf+bcTpNHdmWmbksaFtWOq8L/634JT9+b/9Fevr8RAROg9AFKSEhUFsRIEH0UWO8CfHnZfylmxmf0zb7D2hqipg3r0N03t6fkSX3owf+7km7o2JpG9GlPE/61VdujNKQJLCEhUe1gFgU2YnvOIbp7+qf02spMKjx5Wlurok6tmtSmWX1GisE0/7FefDRIe+PrbhkkAUpISFQ7mEWBrRKh3077ju5++VNanr6PzhSf1dZ6cPVlzfhokLUv/h8tevJmiul7BYU2qUchDepIE1hCQqL6wVwBWjAgQ27BcXoheQcNnpJGb6//jo4eN38b9nVXhdIzd/+DVk+LpnUv3eo/AWrDgd3jgaUClJCQqCyIOUf1aTDW9OfB//KP02vvZ/J0mMQPd9NPB9URH0ZA/SFS7DcBCiZ2S1NJgBISEpWEGprQ8poMwR8G1HDIWUQL1n3LFeGLS3fSHpMUGKDMBOgOT8s0GAkJiUqCWwHqTOAy8J8bRadL6L1NP9DQFzfQ8Jc30r8/+pZ+/O24trUsBKgpPqEApQ9QQkKismCqAMuJXfuP0BurdtOtz67jKTTvpGUHogBNZmqVkJCQqEAIAvROhA5EA5oDKTSvrtxVHhNYEqCEhETlQJtzudwmsC+UgQC9TWBJgBISEpWFyjCBzeA3AQopKhSg9AFKSEhUFkzTYCpBApZBAaonYvq2JgkJCYkKhEcBegiwMlBmE1imwUhISFQ2LnCnwXiEViUIwLIrwHp1gvhfaQJLSPw14Og1hIYNiNA+VQ9o/OetACvBBi6zAsS8+oAYGichIXH+wvHkRtq+aSUlr/mUNjymrawGMAuCVK0C1EzemjXV05D8JyFx/mNIdBdSJ4kKoUu7OPhSdYDZSJDKQJlN4MNOdZYF8bJ0CQmJvwZC2g7RlqoeZonQVRwFVgnvZNEZ/jdw/oug6BHDaXCv6tPbSEhIMAIM7aAtVT08aTCVK7T8JkDBxMUaESoBGcEz6YtTO2jN4mRa+a9ntHUSEhIS3jALgoiXIlUkyuADVAlPnFBgCjCEQoK1RQkJieqF4BCK0harGqY+wKo0gYUCLCkpBwH2CSHJfxIS1RQhIVRdkmGq3VA4oQCLhQIMxATuyBSgtvh3Ac+xGjGcortqK/42cNDYGck04yHp6w0MDopbkUWHThfT8f/OZJ9s0DWahj09h5IXJ1PygmkU+xeoa2YjQSpBAJZFAaqEJxi5ooPAjl5xNHtBPEVrn/8aiKcFH67kFXPNxxspLkxbbQkEiOJp9uKVtOHrLNqzWy0//LhPXf4xi9Y8eX4QiuP192nGk8MpDn99XreDop6cQys37eDX+fPBX/jfLz6eQ/E+E3TV7y54rjrWnAiKfXkhrfkcz3EfHTqI57iDNixmJOUzCDiEbukTTiFBzDIN60Gx2loPcN0L6YsfD9OZr9dS8stjeUc77AFW574+QXveqcL7ERZFg3EuOlIeO2IIRfmsBx54TGAd0VQGA9aqEaT4U94Ye6Py4+IY5ZIWjfnfdx7vbbqfbXl8s1KoaMhepNs2S9lVhJVFSsaLuv3LVcKUfqOnK6lbs5X8Qn5wD4oLldz0WcpAr/27KuPfXKbMG99Vt46V7rcp4xMWKanpu5Ts3EKl6ESRUlSsHYcBnwtzdymbl0xXRnfXfY+Xp5TN7gtWlNyUvobtKF2V0QmrlAwcW3dcS+SvV0aWOoZ56TbweWVeWoZ63vpbUFSo5GdtVhZN7Ku0M/keysA3M5T8XzKUWf3Mt9uW9tOVjBPab7Envnm8yT68sHv+VoaS697XAoezldQXR5qf66u7WK1hOJGhTDfbHkhp31d9Jtn5irHqsIetbH71NvPvidJ+pDI9NVsp9PE8i3IzlEXG+uYui5RsbT/WWJRFum3dxi9i9cV4Ykaw+/64/njmZWK6roIWblYmmuzju7C2NnGesn5rbun75QXWviebfb90yZw/3M03Yl2P8DZ8XdyQLl77lqf4TYCvj+7Jf7xN04b879txARBg4i7tRjB4EaDnYee+rycJHTnob2wxI51fdpk3ClZ5J/rTqBi8CMlNzvnK+okgjl2lidMXGLHuetO7cSzy1GL2g6uUfu5tWuMv40/4rqRhysjE9Ur2YW1/Xyjcpcy7O8z7GO3nKbu0xluUMd2SJK3KxE91jWrfMt0160r355X1FhdfVJivZGeV7riK9q1Sxrc3HOctd81RUvVk3f1BRkLs/h727rA4+e9YpUw3XjMr7W5+SlnEGrHvjihXSbHoGNrdze6d7vLdYHW26HAuu67SJJG/1dgZs9JvFfsVDeKZM2KdtTVfW2kAbxPZ/L6x5qJi1zyfz64UAbL2c2fMSGWkV7lN6WbyXb87MB2827d12bNAJcALGd+IdVVKgDPuv57/eMvG9fnftwIhwCQdG3gRoEcpFaY/xT6jEW/2gxyKlPxU7I9j2HyHVfrcLKbS3l+mbHbXKgb9OejVqRUYCxedYA0om1U0Iym7UaTsSvQ0rukZup00ldLu7llKhlk9xnluXa+kvPm8rvIxMn5/s5Kdrx3HplJbHVcllAxl/ZJ5ymR2zMlvrlI2Z+uutjhf2TxRRwj9lnkaHzqE+7x/x7YM1DVcw73w7MM6PMO9K0KHlvCg0s9IcN0fVVKydOd6GI1Ut9393Jjimcg+gyTSGYnxdTYoyldShUKy+Q4nrR2bldQlrG7piDE7SfuurrSbuFnJN5BnYTZT2s+UJhA8q826ylrE6qIXCerrIyOmyePZfTWe4An2XNMXKZMHeqvIkR9plaB4lzJLrGNEBXI0lly/OkpvBYoy8FWTtobOhbWNXemrlJQly9QCC0RH+mr79j6WWdm78G7OM61CGrjXXdehCglweux1/Meb1q+rEuBjN5vuZ1v8IEAle5kykT3AUveW9W4gsHnPgBRYA3JXNPTGt5n2jIXZ65V593lXjnZLdAzoDwEWst9963nlzptNGjIr3e6b51WROZiZOlrbPl6vhti5piYy09LQSIrydykpNuaoKN3GP6+ML2Vmq2Xgm7u8z5818F1LnlcGWuyPMvDVDM93ilhjcRNLmDJL9Umo8ENJqMXwPd19cJf27FnrGl1R7mZlloka8y5hyvg0z/Mt2vq8Z5vuuWUveUpZ/4vhWTBlBHM/VSP/kfo6CHU60KTTYEo+O22ewaURpqTs07YzlCJAA6kXZi2zfFae0lWZp7tf5hYJAzpebRHgprNdfXFbWlqnwNZ5Kb2ywsvq6KpMZs/C+3w2K/NG+66/UNizmNVmts1Yvnv7Hs4zzRvWc6+rUgKcFhPJf7xRcDD/u3BCJRGg0fzIzyhFYrVq9FVSPfaBkqtXMxyFSkaihc9ovK5i2RIgazhpz1tIf2Ppqszaoa8STDXFaNv012wEI6nNVudZhjKQ/YZXhYSp6LPxqWW0UAsM+WkPerbdt55dhYB//iTjPcxOMpo7fZVFWZ4zLUz39/4y8p+vu496P6j+Nw11J3+rkcRY8TItmbozKqDDGZaErO/MvAlQT+pFjIj9faaM2D/Vse+uWZ5tpeojA+uMUyx9hrqi+644T/8IMF/JWMKsgx0Gpbh1kXa/w7yPwywHy3ZWzpLzzgjOMyH1gt3rrq8EAvQ/ClwqDaaSoM62xeHKSaGYm3rShHcztTUC6ZS+36kth5AjXJ9c46T0Sd3oxidSKE9b44W5eVSgLVKog+K0RSPylo6mG29NIOMvmyOTJj2bpvu9YApuri0ecJLpO+qPbKPEuy6i/lbn6S8GJNPsEeHu/EpXThLddcVQmr9TW+EDSU+kUmaJuhwaMYSGqYtE746nVPfFh1DUoyt9ROijaeWjUZ40p5PbKOX+dO2DCsfrM2l4R3GmTtqVnkfhiBaWihCqwyWH8Yj4Wh7p3P5QuLaNwVlAy7VFL7jrjotylsbQjTeNpyTjffgsnXKPaMshDgoXzwk4kk6Tru9Jk5abP5H5B9w1h1UdT82JXfM4RYnjuPIocwdRJD//aO+8OhEdHTeNFqzYSHt+zaLZfUK1jeyynPnaEkOn1l4pY7wtXNuJYub6USPXFbC7qyKk+XD+N/XF0RQzKqZ0eW2be188k+xRQ6k/+53OV+vKTaP5/UZkf2ovcVYu2vZKT+t2Vk6Y5gFWxmBgM1Y0K88O78bZF8v4++/xUaX28Vn8UYAC8JcZ/UH68mKGl+oRyP9Ip2JMi+63vKS9LupmZrr5LPpr0DnkzXryomxl0UD9dwMtBpOzOFdJKfNxdaZdcbYyT7/N69wt/HlaacfMLi8NXOo59PUyIcsDL6Vqcn99BW68/LJu+OHrnOj5LY8v63ldxLt82PWm7v7q20rxLmWeXVsoVTx12bfPTVfvTXx9+rIoS9sN8AroVXzZ/+5IzjPBQbXc62648sKqV4A5SXfzv4HkAY5t6+ntfCHng8k0Zb/2wQxLcj1KToCpjvmDkrQPgcOZk05lP0oHai06R2cuZXymLb+hU5waMt++jcas0z6UB2HPUHSEZ2xNwWfTKabMx82jIk0B0sl87978jQRKzdGWmcaMGDbHJB8NiKMF90Z4RvmUZFLqE4Y7OCKOepUhD8wKrrw0Spxg83RKcihlymRbVZK0v1TNIdeX82jQu9oHK4j7pMfr/6TIBtpyOeDcOZ+mTLA465OFlGfXFs4J4sjRVltkcOZlMDvMCg6KugMKeCxNXZBMyYvnUDxTvmWZAOUCTe1V9qs3/B8Joh+TxxDISJBgnXlrC0ZkqQbzqRT276Jcj3bnyFs3mRK0Zb8Q0pp0hlW5EPVOD/exCr5MoURtmX0i50ltEWDXlmZV0cuKkR10IwTyaFti+cnfG+k05q10j4kUGk1x75QeLRr13sMUpbPXnF8uowmGBht1Wwcy6/6ceex+LE2h+c/CJJtM89nycn35ZBvlfJnGlpMoYUw/6nz5QEq0IQPXzlQaIzofC+TtytWZfUAerX6xTDXHPXPK1EiTGlTiooK96bQa5zyBXdeEBEoyXNfqLZmUuSWVLTPiG9SNWl47ntK0r1ckQppX1AwviZS53+PMCel4Ny14WrgpGMkxk377t7/QoWMn6MzZfbRhhUZ8D2hEiAlQNu2j4z+u9WNAgAUqwQL22wSG7IT8FOVf43qZ7mdXvByoNiYwTBj998zLSGW9V/TOOjfLu+h/Sy/5y2I2GIo+AljKdH/UK+qJyGOFOY31ZlIZEqS9iy6gZHpufb1zGY3X55X0DJg/h1m6FFAOm2BDmYrBTPcrkT5GH+BhsMpVNBb9b/H6a6yD7AzKEICyLfpn6+Wq8afozFqvdmZW9CYwe3Z2prZJ+lIgyP/IdyRY8Ix+Xc+rqtAEPlNyVltSUdFD4fQo2L9IW7JDChXou/G8XZTko+evFAyYSV+8E0vh3P5z0bY3RhpM9/mUJ5zuAFMHFeU01rsUYLabBgZ8IWw4hWsy0nlgl8m5MRX4aprHjG8QScNf9oRDYl+P9TIBXdtSaLLJc/CeBYgprvutgw2Bo4DylmiLdljqCRIAeZlJNuacHUIpWH9dTN0n3up/AKr6IYRaDdAWzbBuNHW+K5G2lfYgcLhOOilvbw5t+0SvdHPIaeY6qCbwmwBPFxtM4AplwCZU120eOyk3y5+G4dB9B6aUnU/CCqHkKMd7ECKeW0s/rIijSC0C6NwymWKmlD73HC+mrjjoo5IFeR6juyyInR2tme4FlLHE4hjvjqekbR7zxzFgmjq+t89CirtFb9gWUPpb9v43jv0ZNLEifKBAk7oe36Mzl3b54ysLC/Z8B/VtRwD0Z5JB4Ny5yt5v/VfAuol044XtqP8YZtZ/kEZpHzATftRA6l6zFjVq3ILaX92JbrzVE2Ue2rsTpezVvguU5FDamynah7JB+AUrEv4rwGKDAtT+VgxCKUTvSParxxhCrXQpDIESQCDAxA3Juw/T9qnR5NBaUsFnE6l770TTxu/SX09IqCfVpLzQXk8AiHSHsgAvxJmhEZhrbxq9YRkEyKMpU1IoR1xHcATFLoijqVOZetT7dTNTaYKvQALg6BCQHyji3jm05tvDdOb0Yc8LfNoGMMXaAFbftEWQdt5r2mI5ERIeZREksoODop5Mpu0/naAzp7JoQR9tdbVGHqW/PZnG3DWQBt01nhKWplmmi0U8t5GGu3OBkJ400aeP9lzCfwVYygSu3OiMb3irxvwsbbESIRrgD5tm0rCOnnyovA/G0439zckP0Cs1at6aumiL5UZarvs3Q8OjyzCZpYOGvb6VvnhZy9tz5VDKs6PtFfRno2nSas8VhvSaSfGReupxUvqS8Zb3YHmmbksQI9D3Zvo391zXaIpfsJH2HCym7e+MpWjkfJYw0iqP0vJSjfnkDnSXGYm0Za8uyzOUneuHw3WBKWs4esXS1A930M/H9tGGGcMpoi07o5PsXMRt0nVu5yccNHZxFm2cKnJDXVSwbjINvD/wUE9lxEDKoACNJrC2UAakHqhAUzDMQaFu1egil97PZgtdugp7NK07aYtMCXhFazlY7/zANErelMUqqq4BCjhzaPmEntT+rvmWDZ8jO9/jcwpyUMQ4bbm8+Gw+bRNEEDaEFnw41p5U3GSyj5Ifi6RQdCCuAkqb4l9aTtpd0ynNwv9D+9PolTe0ZROkT0mlTF2bDu4aRxt3r6Sp95Y+44gBiBqy8/xJnepp6gNRnoRlRn7pfp6vFRyOUA8BulykSz+2hz45WcsgSEhKZzXHA8fghfTF5wsprlTKB1JD4mn2x1vph4MnWCe6kOIHR3jqMOuEku7v54lw/1LoqTPnGRzDZtKGH7N4gr56v5yU+e/RdOMga5HgFyqBAcvgAyy/CZxXYtGrjdCbJH7Cy4xxUsFSbTFgFLrz4YIdd9P2Hw/T8dOsd14QT8N6hevIlqHEyaT8eOrezM/MfK/L1pNueZFOMfNFmkowa3xzaPvpE3SczzunzSeopSYcP1VcmkycmTT//p406DV/q2USDXpWFxBxg6m/+TH2CnL/RBo6RZdSwxDScQjFv7ODmX7s/HCOPIWCdTRrkDfGzpOZt17A+Y7qSf115zuseZlrDg3RH9dqVIm/eHcgjXk3R/eIgyn0hliasWmf4bqQGjKNxt4SSY7m3kY7chun3NSpYnJDqxJdx9KCz1ndey+OooRvCM/snm7U/ZHyjxipYgVYASawXgnpwSqEd5XwA4ahQhWJYEcERThCSuctniygzNUJFHNVC+o8ar6fw+QY9MPvGIJDKvDNC2/0o1GvbaMC4Z8LwjA8B4V3DFdLOPyrbJ3+BjPVl8kJvBtNKGsktlSDZ4fLTKIxNupPIO+1ftRvQirlGftBdnLBOEdWTHEkh9LmjjY939ZW37FBeGjF1py0+2+j0W/onoGAj+tyHcik5ZPU3MYEY+TYJIHef2RTvt/ysSz7mgE+zIW0Ab7Zr+dQ7A0OtS27RUIAdcwSVRgEOa29C0QgIBfga2m0RdR+fWXZyx62ttqZk0Hb9FEjCwxj5ORuR0fK4sdxwupxIyR0rLZkDhdTCDlbUngSbvvGF1H32yfT8jL7n1IoU/edkOZ+eb/8RtqknnTx9aMpYfU2yjtiZBcGprz5dXyZRvOfHUjd67PrKAuBG4AGP2Vdnnr/C9Jpyl0T/e7dM+cOpfb1WaOYm0aZGCdtJA0A53skj7Z9oiYJ127ViQZNSDI938z9Bep5oMF9uc2PaxpOdXX07TyQrS35AXZvPd8MoVC3KyOPlj/BnsFVMZSwNJ1yzJ4BwK7LeSCH0pcm0Jje7ajRJd0o5rV0i3uXQRnbcihnL0qe/2Y6BzM1D2iLPmHwY5YFkXPoi6PwYcZSlHAN4Tmw5zbm+jKKBD9QGUOBL0AyoLZsi2vataBlz/TVPhGlfvU/in97m/apqhBB0Xc0oewPrCpRWRBHG47OVEc0OLdR4oTplGIT3SozBsTTgjtbU96n6bRtWyqll8eJ/1cD3mmhNaBjOSmUdi7y6NhvDm6QTau3VJQ6KQ28DyYSwQ1Gmwer4JlHDBhOjpMZvq8xbCwlv/Mwa03ZlPTiUEosQ5Q2ds0vtGBAKOuwcihj9SJ65dXECrlOMeQ2PHYZ/wvc0LE1vf1EFM1dnUVz11RM1NNvAuzoaEofTLlF+0S06sv/0TPvVDUBViT0BJhOk5r10w1nk5CQMEcERfVyUnoFdyTnigADD4IEYgJLSEj8xZBZ4eRnhcowgf0Pghh8gIHFgSUkJCQCRVUGQf7yCtBF/o1AkZCQqAqc/2kw1RqGSQskJCSqF6rSBC49GYK2ICEhIXEOULUK0DgWWPsrISEhcb7CbwIsLvnTy+z965nAOlTgTNESEhIVgyqdDgvQR4KlCSwhIXG+o2wEqPMDBvJOEAkJCYlAUaU+QEDvB5QKUEJC4pyiKqPAwF/dBF78/IM0+gGUBFpVUS/TkpCQqLYoowmsU4B/QRP4P6vepXeTUJbRhjJMEiIhIVH5qHITGJFgAWkCS0hInFNUfRRY+gAlJCSqBtUgCCKjwBISEpWPs3+q/BJUU0dRVR4E0fsAJf9JSEhUEkrOqmKrdpCHoqqXApQMKCEhUUkoOavyS+1aNfnfykI5CFBbkJCQkKhgnDVTgFUeBPFKg5GQkJCoHJT8qRJgLR0BVgbKdHR9GoyUgBISEpUFtwkc5DGBq4EPUAZBJCQkKh9mQZBqEAXW+QClESwhIVFJEAqwVvUKgkgFKCEhUfkwDYJUggQsIwHqFKAkQAkJiUqCCIJULxNYjgSRkJA4B6iWQZBiaQJLSEicA4ggSK1aZaKoMqOMBKg3gSUDSkhIVA48CtBDUZWQBy19gBISEtUPnjSYahQF1ivAGjUqwyKXkJCQQBTYRAFWfRTY4wOUBCghIVFZ8AyF0ynAqjaBvRRgZRjkEhISEgxuE1gXBKkMximHCawtSJgievYOOnSqmM4czaLkhxzaWgkJCX9gFgSpDJTp6PogiFSAdoijx0ZEUEgwWwwJp2H/2kEbnpQkKCHhL0yDIJVAORfUqhHkdzy3Z6fW9NbjUXz53Y059ErKN3zZb4yYRgv6OsiVnUYZB7R1OlzaLZo6hGgfTOGk7E8zKDMnhdJ2aquqI/qspB82DCEvynNlUuLV3WjSfu2zhISEJV4bcz0NiLyEFqz7lhI/3M3XDYh0sPXX0dzVWTR3TRZfV16UiQCv7dCKFk/szZeTP/2epi/7L1/2G49tpEOvR5Etx/mFHEqq2YnGaJ+qG6Le20cbhpVWfK4vJ1OjmxK0TxISElaY8WAPGnTdpZS0IYdmLFeFVmUQYDl8gNXPBI4YMJyGjUAZQlFh2spzjiiK7aojvxLtL0PwDfdRch/tg4SEhCXMpsOqDK9bmRRgp0ub0fuT+/PlZZv30bQlO/iy3zAoQNdJJxXkFZCLmba5mbl0TFvP4cym9TvytA8GsG3L12VqH1Q4Xt9Bex6LILjdjHCddOFfch4oICcnJJPfK4UQckRcyv4NplBHKAUHB1NwXgr1vyKG0rU9TKE3f53pNOlZJ42dzT4H8a1U8MlouvjWJPWDhISEKaaO6k539QqjlZ/vp8nvbufrbuvhoFdHV6EJfMVFIbRm2v/x5eVb9tMLi9UT8xt6AixIo5gLB9JyvqH8GLvhMM3uU37j2h6+Te/Yj3+hBbeEqh8yE6n2PyZS9Ip9tOYOTRWCFJv1o0T1k4SEhAmeH9GV7undnlZ/lUtPv53B1w1kBDizggkwYBO4ZjnlqCsvs8LID5iflkEFTOlB7amKr4JRwo57JJ8sNKmGWBocoZEfQ07mPP437a5FtO0kX2TCsgcNeU5blpCQMIVpGkyVvxSpAn2ABQdsDcmy442BdHHjhtRIK7Vr1vKUawdSzKgYivnAm75cOWm0fGkKJb0yXt0+ajwlvJ3C1/Eyd7K6flA3ql2HHbdVP7INYTx3H0W5+S+PMlPE7yVQ0pcF2nIwRfSN15YlJCTMcFbMB6ibEboyog6BB0HKycaukxVMgHbYqRLdcoMyzPlEJcYxz87XSG8+TRkDItTKhAR1vcHfaIX4vjofZGYaTf5MW2ZISsxwq8fgyH/SDG1ZQkKiNNzTYVWnRGj9fIDn41jgsW095ikCIYW/aIsVgpk0JFLQn4u2pY73Npc/m0+ZYkVQBEW/o+ZTSkhIlEa1nw7rfBwJEqxFYlXAp6ctVgAcs6MoQhx/fypNeUlbdiOdVu0VZjBR+OB4itOWJSQkvCHeQV6nOr0UqbrnAZYNTipYqi2WGw6K7xOhLTPr95PJpqkyy9Oz2a9qCImi+E1x3qNFJCQkOIrOqAm03gRY8ZxTZQow1HHu9U94qC5NBjmI2mK50WcaRYVrywVpNH+Cd7DFjTcyKU+XGB3SaybtObiP9uzOcpftH8+kG7TtEhJ/VxSdLq0Aq9wExjT4wjl5LmaDcfQaQsNGxNPsxcmUvGIjbXcTxVZaMELbKVCUFHnUWDkx7NEot5LL25JIpdKcu0ZT/OId9POxOI+ZrCG4uYPCO4a7S8Qt0aQONpSQ+Pui6LSmAGtXIxMYECqw3D7A4NZ82Fr8bEZueoL76TAdP3aCzpwtph82rWTbptFYDG+7I4oidEThaK4dx28MJ70ApCMFlKotlg+xNLyrFlw5uY2S7tGMX5De7LX0xY+H6czXa2nqiAgKbaBuMsKdu1jiIufeDNqkrZeQ+LvCzASuDKdb2QlQc06W1wcYEhnHiW/qOG38riC4tiEU3MBsQBuDixGFs4By9uZQXpkDGBjOpi0CjGwsDNWy4bHh1EMEl0scFMfI+zjmAQTpjYumSIdhdIrLicvQoYDSH9FyF+s0pJZXj6YvtS0SEn9XmJnAlcGAZSZAEQiplCgwCO6kk/IYwWVuSaXlS5MoYYKWiIyE5vqMKJpdRJ2v7kljyhnAcBZka0vlQ/yQHp7ZbUJCKYSRtxfRMsLL25lOq+dOpqG927FraEGDVuupN5S63DlcW5aQkACqrwIUBFjeKPDJHEozI7jGLaj91Z2oe++hFDNqNE2Z638isj06UOsKHyqsz/3ToCO8Qdfimtj1XNuPhk5IoNVbVOJLv0c3NI4htCtTwNqyhISExwcY7OUDrHgKDIAANRO4vAqwJJ+2VCjBlQ3OA+X3AOpz//KWjy9FeNaTtiZQwic6FRjahYaXN6gjIfEXglCAgFCBVR4FBtwmcJm/yXBRE4+5eK4RxkxTbRFwlZTXA6jP/cujzKT5ZZqlOu3ZVMp0+wKZGTw8VluWkJAQPkDAyw9YwQjcBA6EjvlLMqoIA0K9yJdZquWDPvfvSC6l68b9+oX9E2n+Fk8mYmjEEJIUKCGhwlQB8n8rFmUnwAqKAlNIaxL8ce5R/nHAUQ/2cOf+uXLSab62XBYkTWAqUDzn0CiKldNkSUhwCB8g4M4FrFYmcGUY5JWJCjW/Y+mxG9z0R5lbAnzPx/7xlPKlkKLBFDkymeQUCRISKs+ICRE8JnDFc07gJnBljAUOi6LB/J0erDw9xztBmpWfj57gSdLHTxfzRGl3ObaVpmqHsERFmt/3DqEuIvfvZCalTdGWA0BiQponHzEsmp5+TFuWkPibw2VIhakMyRUAAVZQFJgZwLF6EkP5fiOtBOmhvDzWO0GalVBGYkiS9p7VhahgyyIqBweVGfGxUST4r+DLRfaTpPrCZzGU9KWIhoRQ1FNrabD2SULi7wx3KoxQgJXAgIGbwOdwNhh1qJiaIJ2zdxulYZLStxNowqjJlPBSDN04yPdLhrznAiwP4qlXR01NujIpZUL5X3CU8KpOBYZG0wOvydHAEhLuZGjNB1g9FKAIgpTjbMTYV2ceCI0VJA7zGZlTaP6z2mzMIjmaFXWaezVBGqNABmH7mMk0f2kCTZmS4teQNqEaBZm6PD7WMiKBJj2RQKu/zKH0tydXzIvO102kVC0nxrU/lZbMkaOBJSRMh8NVMMr0Vjjgpdhr6Y4bL6fvfvqd/vnCJ9paiXLj3jmU3CmDJj/hH6FLSPzVsfy5fhRxeXOa8K8vacPOn2lYVDt6IaZb1b0VDqiw2WAkvPHueIqR5Cch4YZ7SqxKVIAB+AArKA9QQkJCwgbGOQGrhw9QKkAJCYlzgKIzwgeo0VQlUE7gBCgVoISERCXCmAZTPRSgOwosCVBCQqLyYEyDqQwKDJwAy/xNCQkJCf9RKg2mOpjAp6UClJCQOAcwzgpdLUzg08XSByghIVH5qJZpMBU3FlhCQkLCGqXSYKqVCSwVoISERCXC5U6DqU4KUJjAUgFKSEhUIkqnwVQ850gFKCEhUS1hDIJUiyhwRcwGIyEhIeELf1THoXCn5VhgCQmJc4A/tDnrpA9QQkLibwe3AhQ+wOpgAksfoISExLmAIMDabgVY8ZxTDh+gJEAJCYnKgzCB6xtfAlSBkApQQkKiWuKP08X8b7OG6jt4qokJLH2AEhISlQ9FUXMBK1Nsld0EdkeB+R8JCQmJSoPwAwKVQYNlpjH3azGlApSQkKhknNL8gDWhAiuBc6SOk5CQqLYQfkCkwlQLBSghISFxrlDZydCSACUkJKot9MnQ1SIKLCEhIXGu4FaA7veCVCwkAUpISFRbeClAvlSxkAQoISFRbSGCIHw4nIwCS0hI/J3gCYJUDlUFdNSzfyr8L8/NkZCQkKgknKqOJrAYDVJZoWkJCQkJwCsNprpEgcVoEEmAEhISlYlqGQQRk6J65umSkJCQqHj84fKMBKkMCVhOEzigr0tI2MLRawgNGxChfZL4O0MowMb1a1efRGhpAktUFhxPbqTtm1ZS8ppPacNj2kqJvy2ED7BZI3VOwIpGgApQmsASlYMh0V0ohC+F0KVdHHzJCo6HkumL3Vm0Z/dWWvlctLZW4q8EoQCbNgyWUWCAm0cj4mn27HgadkcU2TcRifMZIW2HaEvmiH90OEV2DKfwjpE0OC6O4rT1En8dCB9g00Z1qlEU+FwFQbpG09iXF9Kaz7Po56Mn6PjpYvoB5tHiaTR23DRKXrGRfjj9C62RptJfEiGhHbQlcyS8OJ+2HXCS66SLCralUaK2XuKvA5EHiGnxL6h2QZCggL5ui4h7GbFtAuEV05mv19Lsp2Mp+oZwCg0JJtN3o5Q4qWCvtizxt0Le8vF04yUtqFHjhnTxrZL+/opwm8DVyQfoOlPBJnBYFMUt2Eh7DhbT9neYadsLhKdtM0OJi5wHcih9aQLFXN2JxnymrZf4ayE4hKK0RYm/JzxBkGpkAgsCLL8JHEFjF2fRoW830owHoii8ubZagBGdy1lAOXu3UdrSJEqYEENDe7ej2nUaUstLOlH/UZNp+X5tX4m/HkJCWA2R+Duj5OyfPOhaP7hW9QmCuIpVVi6XAhwwk774dQfNHhFOIcK05eZsOq2eO5liBnXjRNeo2UXU+eqeNGjUaJoyN4VWb8nTdpaQqBpEz95KPx8rpjO/rqVYbZ0pmGUzeNw0WrA4mZIXz6G4XjJkFwhEIKQyUE4TOKCvM/JbSHtWxFFkqPaZEV/O0onU/6oWdPHV/WjohARavi5T2yhRcYigWC2otGf3Pjp0cB/7u4M2LJ5GsRXWOCMoesRwGqZr+PHsc3RXbXMFY+yafXT82AlWWGeqratcOGj4LZEU2oAthnag6D7qWj3gx165+zAdZ5bNytnxFIv7MWIszdi0j37eEBdw5kLEAPU4UxfgvibT7KfZ579BwrjwA15QGZnQtWoEKWUtU0Zcq/y4OEZ5MLqj6Xb78pSy+bDiQXGuknJ3mMl+5SwDn1dS0zcrKS+OVNqZbbcqjy9TdmXtUta/epv5dr9KV2VgzEhlJMrQvmX7fctSjmO2H6lMT81WCou1e26BotwMZdH4rubHsCnd7puupKRnK/mFRdqRzJGb0tf0+/oyMb1Q25uhcLMy0WQfffHsX6hsHm++j1npxurHvLQMJTu3UCnSn3ZRoZKftVlZNNHqHrP66z5F9puPe7a1u3u6kpqlO39TFCnZb/m+D7x0f1CZvmSzkv0LO0e7Z7dvmdLP7Pt/kbJh+iDON48N6cL/xrG/ZvsFUgIiwElD/8FPZNzAq02325V2b+7SnpqKoozppvuVr+grqaLkp4402ceiJGWLbynr7zPZblNEAyhVWYsLlewljwZEhOU9Zru75ym7zNpkcZFSdDhXyc7KVYy8lb91ljLQ5FjeJUwZ+eIqJVvfmfmAP8+6FAG276vcKYjfXW5TupXa35uMzAs758T1/p9z4S5lXqnOebqScULbrrDOuz3WdVXGp+YyajOB+z5nK9n52h7565XRXsf0Lv4RqQ4nMpTpJsf5q5TUKbe6ia9aEOBjQyL4iTxx+zWm2+2KVwUHWEPO3bpeWZTwoNKPV6YKKIneJKtkLzLfz6y4CZDV//SnzPcpVW5TZqVbNAAdCnfN84NYRCn/MdtN3KzkG4izMJupm2c8BOLe9+5ZyuZcz68VsXtmedyHlynZxvbJGnphLmvk7FmmLFmmlvc3MzWtU4a65zDyLaa+QAqGkusXOWUri7TjeBHgRO/z1BdcX0a+tqsORYX57HczlPVL5imTGblOfnOVsll/ccX57Lh6ElzEfl0gm1kvJsfldXqVMn20QUW66yXrXGN060Vp/6iSYkJ8KoHiHLX7uoSd4w52v9zK0HM//oplycR+nG9EqXICfOS2zvxE4od1M91uWx5fX6pR6oGHvSt9WenKU4Yy/lPvSlT46aOm+5mWxzezpqQhd5Vv06L9U8r6Xww0hQYgGrXo9TUUfuoHqVbEMQeyhqrbrTBrmTK+u2GfUqWrMm+X50ulTVamoObv8twf4DAjARNCLVWYOTfvVc95luoIywKdaaw/TnaS7vd0ZSCzOrx+rShf2bXkeWWgzf0Y+GqG5ztFu5RZ7s5ZR4BQd9oiB7sXqawjt7wXMazua7vmLvFWlqWUOlf49ueolq7K6Ddn+XQVnM9l7iO9qhcBjo7uyE/khZHXmm73VYxqwxJcVbCe763pyuib/fcTLsrSvs/hj2mkK7pKqhSzim+2jygDWe/v5c9UzVLvBsBIY0mutgPgo7eukGPq/axF7Pv++kHDWOehkzO7ZnltH8jUseepFSm5qcbz8r/4R4D5SoZQO4L8UbYuUkaaHMeMAL3PmZ31vlV+dARqGf2R517kpz2ordcrQA1FucrmRH/usee7XtaFobMqyzn+HcrL9/aoXgQY2+9KfiIJ911nut3vAv/OM/OUFDijfTl6AZgrzMSa50NxLNLXUD8c6d5FX8FtyIqpNK9gzuEMZZZlMEd/TOE3MikVdEx9w2W2rJIyvrTvjBfhXxs/XVnEzNVSylLfSO/TdQwMue+XJ0jEOsGb79T59HRFr7zs7r9W9ARoVFW1Bi5TcnV1ys6sNy3tmSoT389fr5Ku3kIADm9WJvtNVjrftLtzeVBZ73VjV5XtHP8GZeKdasyh2hDgiJvD+YnMGtPTdHt5SreBjyrT31qvZJg4570AdfhLtrJ5SWl1qCdA//14oszyVHpL9Xgb+w3dyeXDWW+2nyh6sqrsYz6vc9KXD7ve9NxXL7dCpTrd/eyAtKInQO9nHabM0pnzPNtgoPd3fZcwJWWf+H62Mg/rvAiwrIEyHQEKf+h4/fGKlIwXjd+RZfT/dao0AgwokQ/Z2UBlTIaQuW4+TRkzkG68uh21rF+Lal87kGKenU+rt2RSDga+qylBREHBFNI2nKJGxNOCTfvozKl9tPJebZsOeZllHSOaT4UntUVTOChuUzLFhmtjE4+k06Sb+lGizYgUx+wuFK4tm6MCj/n6PykSOWrlhHMnew4TPEnnEW11YxMPZNMUbdEMar7acIqfjXy1hTR1XBXkq4U9Q9ERnvGjBZ9Np5h12ge/kUdFor6dzGefjHBSwbvaYqDo0lqb/gvIo2y7G9s1mt/XYU/P4XmAC14eyz5H/+VHyxw7dVpbqngERIDndELUnWm0/JXxNLR3N+qMge912lH/u8ZTwttptG2/U9uJIdhBkUOG88WcArG+gPJ3aYsVhccWUnwvrcq6cijpfnuiIoqmmV6NP4SaXKQtClTgMadGmtBiiUsdYaMNJ4yZkEBJS1Noua6gg8ncksqWGfEN6kYtrx1PadrXgfScAm2JwRFFa3jjE0m5a+kLJFYfO0FnzhbT9jVqoi4nvhGxKhGu2UFnju6g2QO0Y1Q2RnbQJRzn0bbEJG25mqC5g8bib3o2q6UCDor6eBqNZSSHWZBwD5G0/sNBdSYkTA6Cdcn83g+nWE6Ea2n76cO0ffZfdz7EYyfPaEuVADNZ6KsMjLyMS9HkiX4mdFZWeTHDy8Gd/5Ga7+cxi3ybUKWLnQms99cUKbsSrfxzooR5mWgC3s76ijzmSG9/EkOFOdSN/slAYQislC5++ku14nUv9OlOunQmt/+uzKWvkipiTfuWqUEOLxO4rPVLZwK7fdPmz7PM8BWwO49Lj/A21csEFgqwdtA5UIBWCIujDQ9Fks7IoV2pKXwp/6SL/w0IfRyesckGOGY/TNHa8D1X5nwa+oTduGTWw6/4lKYKZWeBij1mKAXrZw06uY0Sbx1K83dqn8uD/YnU//rxtDrH/N66TjJzMCdHU5GasvwkkwrK8SigbFv9f3vnAhvFccbxP9imVkuIRSg1KqkuxQQnLolReZYm5UJqbBE/UBAxaovlRDWlbTBWg6kVaqtqg2VUaqhQTpCAK0OClYQ4aRMOWtwzmAoCSDiYyKdQyU5BtSuQOGJSXxLs7czu7O2uvfe+NYf3+6FhZx83tzfe/e/3zePbGC3GDTPVeZbMUfV60CLyUZG1FtnCjPRdvWDiAieCXjQy76byLa/WvKPHr0Q+8p7nFrxqsbvRGV/F3lUknwss2gBTU2L6eNw4Sv+Esx9sh1MXPcZ3qgmVoj2m5brONY4Sxw8fYDJiRjl2rVbdzl68s6U6xA2Ri5q2Dna8QxNo3cWdMU1x1a0pU8N3/m3UJTJazr+YQOfcg4XFtXCxm9B9lLvUa7BiThqm3Pt1fCtnLhYuX4N1ZczN5mnlAtS161xn+OA5UC3y1uK6qn1vf29ssQLLmVupNCj04/QBK+MN9sL1zFxMWVokB/xwH3WjSW72mY1JX1MiHz2yKA9r1HotK8LCFz0615lf/69ji8iPN25+Zp0LHJcFmJoS7eRkdhO/fw7vviBWo2U+E4y2y7j42gbk6owg/6UmlP2g1kQ8MpD5Y5GNgIKGDpzclKuzKnXtdZvWYomqjJ2tWBckBqGjdDuOfdLBrDSdBXKmEY2nNFFOnyz2WVGmjoxsZ+hoJaY44HyhGWc/GcAXn3Vhj8lk/8736lHJbsLilTxCTys8QUTWUdqMKv05t2/D+p1ixQpS07V2P59mIZk9HMLBX87UkK+cu/+SGzvj7eyIhPNuuY22eGUR1ssdf0Eeh8wybd7s1B7U1z2oXz9+A8L6kk0AbwcEMJqPT0VVG3Pf8nMxzxndbelYVoU9Jy7j03/uxYZlOgsIfvQercXjj1YYGuxxoY/ZGpxMLCkPH32Dl9/84TUmzIuROcL9TRdCW+p8iMmhgrfTxIphFyWP9nHxtSo4Z6pnyM7vrY1YuLTa8LRWSXyZjWi/pHONMgtQc3ht2N/PcSwrx28Pn8O/b17GsYa1yOXfd6sP3hj9voKGv+HkPuZCitP2Mfe+bHljCAs3AUzLROAtIu6ewHdlZhdEEVjVgdId7EH4klP52/i9OPRiBTzyPsZ1P/sL3EGeYg/Dtr0o1SoWrrCdZnc3X3w5FBh5kmjG0AXOQb4w2zLz2R9xa5jOex4letdfZEvk47btKP8+Ez6dOPl7PWj80Vw8uLIeowJn7fbAK4ayZCzbjrMfNqNm5DAM+X0jbwTKL/2OKkXmOLM0SyY9VZMUOfTRB1fw6Ufc2tGJs8+Lll+w83vGFfSmt6LM+iaja+Qo2YuTJ/aaxKJjlt7qGux6v0PuZfyY3VQ1JblKmCdORL3RJszfIB4mzEKRT9yPfvaQyvuusVfZco67cEY996xV2HOYeQ1i1RR2PdTIUckvo3mTeBD6++GuK8R6/fCZg/3i4TrWiODBh7WHof+qG3UrFqAy6uE9dx8+q3qCzXpGwqV5354u98Ycbygx3R8sVbf2GaclXemWTrvVCd7aJO+ea/qjjNzoPiK9/Gz4kE0jp0CpDA4EL1sa4FOanpda1cGvDLXH1jC7hM8BZeWYzlxh+3o8f5R+MqL30tDT16X0VlpRJk/BfjuP+yR/R6g6YAz2HIlidoNIZiG3BnukI7XRhteKZNC4lgx1MHLWz8hZG7yO1cgsPHX3STd4fZhVh2kkGJ6iG6htTM9rPekRz1ASUXcMP4RdD+7fxDwN8W5Mx+qVkFjJ0QscYydI49P34/HKQ/BeV9bTZ2Zjcb4yaFZJq+Ccnw3HtIDNIyO//+PVWhQvSsP0nCJU/jl8sFT3c4Woe69/lLuSPtlYtsx1Xj5zK++djRW/cqH66OjytbGFjNR0uRzDS5p4UNf2JlQuvQcPLq8OHapffM6KMjn8t1fsPIP+kb2K6eI7zOqA4b/aiZYteXhkVhHqI+w51lurNSVqdG/mprc3Yt2js1H8+2gD23ajL1Em1s48lP1BVw+8jqc5kC2/SpOl7Exk8PrQVwez+joPsmvhPmZZtZjZ2fGcH7PcxbUflvlak0Tz1lXIFg5KSM9nHGPZWEAzVQyX5nxzqqzEpxpXm+4Pn7KkvOqXpSMdJtPd1Kd0gkJkLdi4X/pHl/KkD5Q/wCOrhAqyUCjt71KO73Zp22pblRBO3EJVLYnT7v0RRa4xH69mRZm6xK0yHlAzmEXN6iLYdMLw6afaGLkAg1Lfudel6qjLMqbaDvV8w1uAs6uZdcTnkV/rDh7ElgcWZfVs6lnw6yHCOeZKypK2/VUNzPC2VGt6TPAUmFIYwgKsGF2x0mDfBelQ0CCt4z/t3fSEJRbgBP6f0MKIuX/6ZPy9oQjXbg7isU2tYisRiqq2a2hQx+95mzApp0LJx0G0ZfKXyi+W24/8+O+Z4L23keLYcQ4Xea+5j1lNzFJ11deiKRFjDrM2oHnfz5HLrK2m361B4zh765/8d5jcE/y1D1m83boKuak+9Hd60OTahroIvJ7xzEvPLsLTj82S87vf6cLud7vkfLzEJIAzpn4Vnh0luDHwOZZsPCy2EqHY89GXKFdnqSVIAK0oMzoccDIB9rTb++a0AscyJzLaPbZyc0Oxec08PFegvCg/kQI4pm2AxHijl8TPInpJ/Az4LJoNEpsAxjwQmiAIInqs6gSJUwDJAowF/rL3RGNFmQSRLCSXBUgucFz4/TdELnFYUSZBJAtWzQeOywLk7ykmESQIwmqSygXmqHPz0lJJAKPmtgWzSa0okyCSBKtCYsWsXqoVmEYWYNT0X3WJXOKwokyCSBaSygXmqO2AZAFGCw9wKbIJw4oyCSJ5+N/nZtFi4yd+C5AEMEp8uHFZZBOGFWUSRHIxaIEIxi2Ak0gAI6AKDjXy1a1edB4U+biwokyCSF6sCIwauwCSCxwx9xWmwvvmK3j1FZa27wz5SslIsaJMgkhmfLcS3xES01xgjnvbU3hgxhSU1LrhvUJj0AiCsJamzU9gycOZd34uMIcsQIIgxhIreoJjF0CaDkcQxBiSVC5wy9Y85M6ahnUNx2URlNPECVo+RZ9nKXWCPGZQXU+WMAqSJGFoWEvDuvzQ8LBhPdQ+dT//R4yGVXOgjoZFnct5lobYulqXseynGk88Eyfw+3cCUuT7leUnTtTyfMnu9WDrVvG9h2fgZ4U5dz4eIOfAr5/EgjnTxRpBEMTYkBQC+MviuVj80DcwKS1FHgoTbMmfDgRB2A9unfO+At5cxqfO8qW8zhJ/te7IfZGyz92NExf/I9biI2YBjJSJzDRWBfErqUwU01jeZMk7U/hxaXybvFTWDfuEqCrrwT+Twsx1/r0pLBmWzKwftS2w5J/Tjht5DBE//Ia4zdIQu+C5C6vP86W8rt8/xNdZni35vmGWTxSsOOW7YmjmUPcF1uXzVPeL36NLymeM2w3liM+r2xLh1Evi93FxCSzF9xi26ZZKPSvH8WYGO2C5AI4X9MIYEEedoMa6n+nuHYFf3/zC5yKjLE3y7GYYud0m9wVhE0gACYKwLdRARxCEbSEBJAjCtpAAEgRhW0gACYKwLSSABEHYFhJAgiBsCwkgQRC2hQSQIAjbQgJIEIRtIQEkCMK2kAASBGFbSAAJgrAtJIAEQdgWEkCCIGwK8H9CaDMU38Tj1QAAAABJRU5ErkJggg==;" vertex="1" parent="wMgDyIMV-jGrsU-eevNs-1">
          <mxGeometry x="40" y="5" width="70" height="141.4" as="geometry" />
        </mxCell>
        <mxCell id="wMgDyIMV-jGrsU-eevNs-4" value="&lt;font style=&quot;font-size: 14px;&quot;&gt;Faulty Code&lt;/font&gt;" style="rounded=1;whiteSpace=wrap;html=1;sketch=1;hachureGap=4;jiggle=2;curveFitting=1;fontFamily=Architects Daughter;fontSource=https%3A%2F%2Ffonts.googleapis.com%2Fcss%3Ffamily%3DArchitects%2BDaughter;fontSize=20;" vertex="1" parent="1">
          <mxGeometry x="310" y="420" width="90" height="30" as="geometry" />
        </mxCell>
        <mxCell id="wMgDyIMV-jGrsU-eevNs-5" value="" style="whiteSpace=wrap;html=1;aspect=fixed;sketch=1;hachureGap=4;jiggle=2;curveFitting=1;fontFamily=Architects Daughter;fontSource=https%3A%2F%2Ffonts.googleapis.com%2Fcss%3Ffamily%3DArchitects%2BDaughter;fontSize=20;" vertex="1" parent="1">
          <mxGeometry x="560" y="40" width="430" height="430" as="geometry" />
        </mxCell>
        <mxCell id="wMgDyIMV-jGrsU-eevNs-6" value="" style="rounded=1;whiteSpace=wrap;html=1;sketch=1;hachureGap=4;jiggle=2;curveFitting=1;fontFamily=Architects Daughter;fontSource=https%3A%2F%2Ffonts.googleapis.com%2Fcss%3Ffamily%3DArchitects%2BDaughter;fontSize=20;" vertex="1" parent="1">
          <mxGeometry x="560" y="40" width="430" height="60" as="geometry" />
        </mxCell>
        <mxCell id="wMgDyIMV-jGrsU-eevNs-19" value="Faulty Code" style="swimlane;whiteSpace=wrap;html=1;sketch=1;hachureGap=4;jiggle=2;curveFitting=1;fontFamily=Architects Daughter;fontSource=https%3A%2F%2Ffonts.googleapis.com%2Fcss%3Ffamily%3DArchitects%2BDaughter;fontSize=20;fillColor=#60a917;fontColor=#ffffff;strokeColor=#2D7600;" vertex="1" parent="1">
          <mxGeometry x="580" y="110" width="200" height="340" as="geometry" />
        </mxCell>
        <mxCell id="wMgDyIMV-jGrsU-eevNs-20" value="Manual Review/&lt;br&gt;AI Reviews" style="shape=process;whiteSpace=wrap;html=1;backgroundOutline=1;sketch=1;hachureGap=4;jiggle=2;curveFitting=1;fontFamily=Architects Daughter;fontSource=https%3A%2F%2Ffonts.googleapis.com%2Fcss%3Ffamily%3DArchitects%2BDaughter;fontSize=20;rotation=90;" vertex="1" parent="1">
          <mxGeometry x="712.5" y="192.5" width="345" height="180" as="geometry" />
        </mxCell>
        <mxCell id="wMgDyIMV-jGrsU-eevNs-22" value="Function names" style="text;html=1;strokeColor=none;fillColor=none;align=center;verticalAlign=middle;whiteSpace=wrap;rounded=0;fontSize=20;fontFamily=Architects Daughter;" vertex="1" parent="1">
          <mxGeometry x="625" y="232.5" width="110" height="95" as="geometry" />
        </mxCell>
        <mxCell id="wMgDyIMV-jGrsU-eevNs-23" value="Post" style="rounded=1;whiteSpace=wrap;html=1;sketch=1;hachureGap=4;jiggle=2;curveFitting=1;fontFamily=Architects Daughter;fontSource=https%3A%2F%2Ffonts.googleapis.com%2Fcss%3Ffamily%3DArchitects%2BDaughter;fontSize=20;" vertex="1" parent="1">
          <mxGeometry x="900" y="420" width="80" height="40" as="geometry" />
        </mxCell>
        <mxCell id="wMgDyIMV-jGrsU-eevNs-30" value="" style="whiteSpace=wrap;html=1;aspect=fixed;sketch=1;hachureGap=4;jiggle=2;curveFitting=1;fontFamily=Architects Daughter;fontSource=https%3A%2F%2Ffonts.googleapis.com%2Fcss%3Ffamily%3DArchitects%2BDaughter;fontSize=20;" vertex="1" parent="1">
          <mxGeometry x="1080" y="40" width="430" height="430" as="geometry" />
        </mxCell>
        <mxCell id="wMgDyIMV-jGrsU-eevNs-31" value="" style="rounded=1;whiteSpace=wrap;html=1;sketch=1;hachureGap=4;jiggle=2;curveFitting=1;fontFamily=Architects Daughter;fontSource=https%3A%2F%2Ffonts.googleapis.com%2Fcss%3Ffamily%3DArchitects%2BDaughter;fontSize=20;" vertex="1" parent="1">
          <mxGeometry x="1080" y="40" width="430" height="60" as="geometry" />
        </mxCell>
        <mxCell id="wMgDyIMV-jGrsU-eevNs-36" value="" style="ellipse;whiteSpace=wrap;html=1;sketch=1;hachureGap=4;jiggle=2;curveFitting=1;fontFamily=Architects Daughter;fontSource=https%3A%2F%2Ffonts.googleapis.com%2Fcss%3Ffamily%3DArchitects%2BDaughter;fontSize=20;" vertex="1" parent="1">
          <mxGeometry x="1120" y="192.5" width="180" height="175" as="geometry" />
        </mxCell>
        <mxCell id="wMgDyIMV-jGrsU-eevNs-37" value="Pie Chart For contribution&amp;nbsp;" style="ellipse;whiteSpace=wrap;html=1;sketch=1;hachureGap=4;jiggle=2;curveFitting=1;fontFamily=Architects Daughter;fontSource=https%3A%2F%2Ffonts.googleapis.com%2Fcss%3Ffamily%3DArchitects%2BDaughter;fontSize=20;" vertex="1" parent="1">
          <mxGeometry x="1140" y="217.5" width="140" height="125" as="geometry" />
        </mxCell>
        <mxCell id="wMgDyIMV-jGrsU-eevNs-38" value="" style="verticalLabelPosition=bottom;shadow=0;dashed=0;align=center;html=1;verticalAlign=top;strokeWidth=1;shape=mxgraph.mockup.graphics.columnChart;strokeColor=none;strokeColor2=none;strokeColor3=#666666;fillColor2=#008cff;fillColor3=#dddddd;sketch=1;hachureGap=4;jiggle=2;curveFitting=1;fontFamily=Architects Daughter;fontSource=https%3A%2F%2Ffonts.googleapis.com%2Fcss%3Ffamily%3DArchitects%2BDaughter;fontSize=20;" vertex="1" parent="1">
          <mxGeometry x="1320" y="110" width="160" height="120" as="geometry" />
        </mxCell>
      </root>
    </mxGraphModel>
  </diagram>
</mxfile>
